<mxfile host="app.diagrams.net" modified="2023-11-15T05:02:34.554Z" agent="Mozilla/5.0 (Windows NT 10.0; Win64; x64) AppleWebKit/537.36 (KHTML, like Gecko) Chrome/119.0.0.0 Safari/537.36" etag="KxtU-EAHR-EfwcZYWKKx" version="22.1.1" type="github">
  <diagram name="Page-1" id="MzSlDZCd7u869zk6VoLX">
    <mxGraphModel dx="1434" dy="746" grid="1" gridSize="10" guides="1" tooltips="1" connect="1" arrows="1" fold="1" page="1" pageScale="1" pageWidth="827" pageHeight="1169" math="0" shadow="0">
      <root>
        <mxCell id="0" />
        <mxCell id="1" parent="0" />
        <mxCell id="_zbcK_TTAhxszsOSpWpN-1" value="" style="shape=image;verticalLabelPosition=bottom;labelBackgroundColor=default;verticalAlign=top;aspect=fixed;imageAspect=0;image=data:image/png,iVBORw0KGgoAAAANSUhEUgAAA4UAAAJUCAYAAACixYOeAAAgAElEQVR4AeydCbwT1dn/560bKrTudam80lpr1TYqbvy1n6L1Y3xrS9wrtvZqXSqoxLVRcd8ublxFMWrRoCCpiMaFvnGPr1sAkaCoI0sJ4BIVMQrCAC7P//OcyXYvN/dmkpkzZ2Z+8/lAkplznvM83/PknPvkbBrhAgEQAAEQAAEQAAEQAAEQAAEQCCwBLbCWw3AQAAEQAAEQAAEQAAEQAAEQAAFCUAgnAAEQAAEQAAEQAAEQAAEQAIEAE0BQGODKh+kgAAIgAAIgAAIgAAIgAAIggKAQPgACIAACIAACIAACIAACIAACASaAoDDAlQ/TQQAEQAAEQAAEQAAEQAAEQABBIXwABEAABEAABEAABEAABEAABAJMAEFhgCsfpoMACIAACIAACIAACIAACIAAgkL4AAiAAAiAAAiAAAiAAAiAAAgEmACCwgBXPkwHARAAARAAARAAARAAARAAAQSF8AEQAAEQAAEQAAEQAAEQAAEQCDABBIUBrnyYDgIgAAIgAAIgAAIgAAIgAAIICuEDIAACIAACIAACIAACIAACIBBgAggKA1z5MB0EQAAEQAAEZBBYvnw5vfXWW5ROp+n++++nm266iWKxGJ166ql05JFH0kEHHUTHHHMM7bzzztS/f3/adtttaYsttqC+ffvShhtuSIMHDxav/Jnv83NOx+mPPfZYkZ/lsDyWe/PNN4tyuDwul8vHBQIgAAIgUJ8AgsL6bPAEBEAABEAABECgQQKGYdC0adPogQceoIsuukgEawMHDhRBXL9+/ejXv/41nX322XTKKaeI56NGjaJx48ZRKpWiV155hXRdp/nz59PixYupUCjQsmXLaMWKFbRmzRqhAb/yZ77Pzzkdp+d8nJ/lsDyWe+GFF4pyuDwul8vfcsstaZ999qHjjjtOlM96sr6rV69u0EIkAwEQAAH/EkBQ6N+6hWUgAAIgAAIg4AiBL774gp5++mm67rrrRJC1yy67UJ8+fWj//fenkSNHipHARx55hGbOnCmCOEeUsCj0888/pzfeeIMmT54s9Lv00kuFvhtttBH94he/oOOPP56uv/56YVexWLQoHclBAARAwNsEEBR6u/6gPQiAAAiAAAg4TuDDDz+kSZMm0bBhw2j33XenzTffXEzV5ACQg6y5c+c6roOTBbz//vv08MMPEweKp512Gm222Wa0xx570PDhwymZTNJHH33kZPGQDQIgAAKuE0BQ6HoVQAEQAAEQAAEQUI8Ar8fjIHDQoEG0ww470NChQ+muu+6id955Rz1lHdBozpw5NHbsWDrhhBNo++23pwMPPFAEiTxCigsEQAAE/EYAQaHfahT2gAAIgAAIgEATBHitXiKRoKOPPprWX399Ovzww0UQuGjRoiak+S9LPp8XQWI4HKYNNthAbIwzfvx44qm0uEAABEDA6wQQFHq9BqE/CIAACIAACLRAgKdN/v73v6fDDjuMTj75ZHr00Ufpm2++aUGi/7OuXbuWpkyZQm1tbYLbEUccQbyGEhcIgAAIeJUAgkKv1hz0BgEQAAEQAIEmCUyfPl1MDd14443FBiv//ve/m5SEbExg6tSpYrfVTTfdVEwxnTFjBsCAAAiAgKcIICj0VHVBWRAAARAAARBongBvmsI7hO63335iauiqVauaF4ac6xD4+uuvxRTTfffdlw444ACxec06iXADBEAABBQkgKBQwUqBSiAAAiAAAiBgJ4HbbruNfvKTn4hNU2bNmmWnaMiqQ4CP4+BjLnbccUcaM2ZMnVS4DQIgAAJqEEBQqEY9QAsQAAEQAAEQsJ3ADTfcIDZFiUaj9MEHH9guHwJ7J7BkyRI655xzaJNNNqFRo0b1ngEpQAAEQMAFAggKXYCOIkEABEAABEDASQK8K+aWW25Jl1xyCfGmKLjcJ7BmzRqKxWK09dZb04MPPui+QtAABEAABGoIICisgYG3IAACIAACIOBlAi+++KI4dJ13xfz888+9bIpvdf/ss8/opJNOolAoRC+99JJv7YRhIAAC3iKAoNBb9QVtQQAEQAAEQKBbAqeddhqdeeaZxIeu41KfwOzZs+mMM84Q/9TXFhqCAAj4nQCCQr/XMOwDARAAARDwNYFnnnmGfvjDH9I///lPX9vpV+Puuece2nzzzem5557zq4mwCwRAwAMEEBR6oJKgIgiAgD8I8Nll8XiceCfIu+++m9544w1/GAYrXCMwcuRIcXj6V1995ZoOKLh1Al988QUdeuihdPnll7cuDBJAAARAoAkCCAqbgIYsIAACIGCFwKOPPkpDhgwR55bx9L6Ojg76+9//Tvvssw9FIhF6/PHHrYhDWhAQBPgsvEmTJoGGjwhMnDhRtBM+MgmmgAAIeIQAgkKPVBTUBAEQ8CaBm266ifg4gA8//LBbA3i7+hEjRtDo0aO7fY6bINCVwIIFC6hPnz7EI8+4/Ecgm81S3759KZ/P+884WAQCIKAsAQSFylYNFAMBEPA6AQ4Izz777IbMGDZsGN16660NpUWi4BLgaaL9+/cnwzCCCyEAlq9YsYJ22GEH4ldcIAACICCDAIJCGZRRBgiAQOAI8JRRHgG0cnEA+eSTT1rJgrQBIsAjgwMHDgyQxTB1zz33pFmzZgEECIAACDhOAEGh44hRAAiAQBAJ8BrCelNG6/FYtGgRHXXUUfUe436ACfAxE3vssUeACQTX9F133ZV0XQ8uAFgOAiAghQCCQimYUQgIgECQCPCIzqBBg5oymTefwchAU+h8m2nevHlN+5NvoQTMMN5UaOHChQGzGuaCAAjIJICgUCZtlAUCIBAIAnzsBO8y2sx1+umn07333ttMVuTxKYFNNtmEVq5c6VPrYFYjBHgtKZ9FiQsEQAAEnCKAoNApspALAiAQWAJ8DiEfO9HM1UreZspDHrUJ4MgStetHpnZTpkyhY445RmaRKAsEQCBABBAUBqiyYSoIgIAcAnwwPZ9D2MyFkcJmqPkzzx133NHw7rX+JACruhLgGQg8EwEXCIAACNhNAEGh3UQhDwRAIPAE3njjDXEwfTMgeLfBXC7XTFbk8RGBZcuW0c477+wji2CKXQQGDBhAPJ0UFwiAAAjYSQBBoZ00IQsEQAAESgR42h8fTG/l4sOqsfuoFWL+TTt8+HAaO3asfw2EZU0TuP322y0fd9N0YcgIAiAQGAIICgNT1TAUBEBAJoHHH3/c8h9uZ511Fj311FMy1URZChIoFAq07bbbKqgZVFKFwFZbbUVLly5VRR3oAQIg4AMCCAp9UIkwAQRAQE0Co0ePpmHDhjWkHK9BHDNmTENpkcjfBC677DKaOHGiv42EdS0RGD9+PF155ZUtyUBmEAABEKglgKCwlgbegwAIgIDNBG699VbiEUA+mL67i6eM8nMEhN3RCea97bbbjj7++ONgGg+rGyLAU9N33HHHhtIiEQiAAAg0QgBBYSOUkAYEQCBwBL7++mvbbH7yySfFWkE+gJp3Fz388MPFK28qw2sIp06daltZEORtAjNmzCD2E1wg0BuBvfbai2bNmtVbMjwHARAAgYYIIChsCBMSgQAIBI3A0KFD6dxzz7XVbP4Djg+m1zRNvGKXUVvxekLYs88+26OeV199Nd144409pvHqQ0NPkBZKkOGAAYYeJ02LOyLbAXVtEXndddcR/8MFAiAAAnYQQFBoB0XIAAEQ8B2BH/7wh3TVVVdRv379aMKECbbax0EhrmASYL/aaKONqL29vVsAf/zjH4lHlv14iaBQcyYoJCNP2Wzej9jq2pRKpejII4+s+xwPQAAEQMAKAfxlYoUW0oIACPRIgHfDmzt3Ls2cOZNWrVpVSct/5N5zzz3EW6nXrpW6//776YILLqBoNEo8ba58jRs3jv72t7/RKaecQu+++275tvhVnDdk4e36P/3008r9jo4Ouv766+nmm2+m2mmf//73v8XUzBdffJFWr15dSf/ll1/SmjVrKp+7vvn2229pvfXWE7eXL19Of/nLX+iAAw6wbaoWgsKuxIPzmTcI2WSTTURg2KdPn3WCw4EDB4rvjx+J9BgUFnIUC2tiFF0LRSmjFysICtkkRUIh0kJtFE90UDSaoELlaelNIUOxjowYKSyk2ykaT1KyPWLKi3SQ7sTwZFcdJH/GVGPJwFEcCPicAIJCn1cwzAOBVgi89dZblEwm6Y477iDeEKV88Y6avO7pZz/7Gc2bN698mwYNGkS77LIL8R+2H330UeX+pZdeSmeccYY4oqH27L7JkyfTLbfcQrfddpsIJssZXnrpJbrvvvuIg8baIJKPebj77rvF+W3FYvWPRg42uYwLL7yQOOArXxxAHnHEEXTwwQfThx9+WL5NBx10EG244Ybi37Rp0yr3R44cSUcffTSdeOKJtNlmm1Xu85tsNku8hue0005r+eBoO4NC5s9ceOTppJNOolAoRLx7JS51CfBxAuwD/I9HDcvB4dq1a8nPm8zUDwp1amMe0STphQKl28OkaSHKFokMPSk4tSUzpGfN95oWoVyXIM+cPmqOQupJMxgMt6col0sL2aGErq5DNKkZt7Hbb799k7mRDQRAAAQ6E0BQ2JkHPoGA7wlwUPbKK6/QwoULK7ZyoLXffvvRT37yExF0lR9cccUVdMIJJ9DZZ5/dafdMDpD4V+oFCxbQd999V07uuVceLfzmm28qes+ePZseffRRuuGGG+i///u/K/fLb5544gnabbfdRHDLU0vLf9jLfB08eLAr5cq0MYhlbbDBBiKo5/r161UvKDRyvB6wjao/OxkU1zSKJPOkx0OkRdMVJEYuQZoWXmfkr1a2GRRW1xfqyTBp4aQv1xv62V8qlY43IAACUgggKJSCGYWAgFwCixcvFsENb1hRu5nJ8ccfL7Yx55Gy1157raIUp5k+fTp98MEHlXtBfsMsOEjmi6ejjho1SnAbMmQIPfPMMy2j4aCnlev//u//xKglT3Ptev3qV7+it99+u+ttfFaIQO1IIY9Y82gh/xDBP1IEcaRQT3QN2gxKhjUKJWZTMqRROFkd5TNy7b0HhYkwheLVPCIoDPkvKMRIoUJfaqgCAj4g0NpfJj4AABNAwMsE3n//fTG1k9fYPf/88xVTeJ0eT4P8xz/+0WmE7/vvv6+kwZv6BJ5++mk68MADqa2tjTbddFOKxWJUO+21fs7GnrQaFHIpr776Ku29996dCvzPf/5DP/3pTzvdwwe1CJTXFNYGg7Ua+n5NYShRa654X0hHu+wcalAixCOFOmViGmkduUoec0Swl5HCgASFWFNYcQu8AQEQsIEAgkIbIEIECDhNgDdw4TV2I0aMoAcffLBSHK/F46mdY8eOpU8++aRyH29aI8Cb5fBoKv8B78RlR1DIer355pu06667VlTk9Zn8gwCPIPJ6z4svvrjTRj2VhHjjGgHefZQDQh4Z7O7y/+6jMcrqOuk5XcxiyOV0KuQzYkp0e8acQFrI8GigRpkikRkwhijNG88UcxQVazG7W1PI00pLawoDEhRi99HuvkG4BwIg0CwBBIXNkkM+EHCIAE9dvPPOO8UGLOUieJ0b78bJG6rw1FBc3iZgV1DIFHRdr6x/5ECW14vyxes9efOZSCRSgbVixYrKe7xxh0Bv04+vueYasZOuO9o5W2p50xj2/9p/Cd0gPRXrdK89XZ7+aVAm3lZ5Fg5x3vZ1dh8VI4ilMxB5Omrn6aMRX64pvPbaa33rK856IqSDAAh0RwBBYXdUcA8EJBHgzV54qmL54p0weS3bWWedRc8991z5Nl59RsDOoJDRLFq0iLbeemvacssteyTFU055B1U+wqP2yJAeM+GhVAJ8nAtPIQ3kZRSpWChSsWZn0aKeoVSmHCDyYCGPIjp01qHHoPNOw7w5Fi4QAAEQsIMAgkI7KEIGCFgkwMc7bLvttjRgwAC68sorLeZGcq8TsDsoZB68uUwjh57PmjWLzj33XOIRKVxqEuBjBmqPdFFTSzlamUdNaBRpT1IqaY4mRlPVIFGOFuqVwjNG+vfvr55i0AgEQMCzBBAUerbqoLgXCPDaLj5Qnc/K+/Wvf11Rmc/SKxTWOX658hxv/E3AiaCQiTV7PAhPTb788ss7neXo7xpQ2zo+CmbixIlqKylRu6KepWS8g2Kxdkrl0G4yel7vfPXVV0usBRQFAiDgdwIICv1ew7BPKgH+9fbee+8lwzDnP/EaLj5QferUqZiuJ7Um1C7MqaCwWau/+uorMXK4ww47EL/H5S6BTz/9lLbZZht3lUDpShPYYostaNmyZUrrCOVAAAS8RQBBobfqC9oqTIB3DeTpPKeffrrY/VFhVaGaywRUCwprcaxdu1Z8fO+998SutrXP8F4egXPOOYfGjBkjr0CU5BkCo0ePpvPOO88z+kJREAABbxBAUOiNeoKWChFYvXq1OBbi2GOPpccee6yiGW8agwsEGiGgclBY1p8PUufzLzfYYINOfl5+jldnCXzxxRe0yy67OFsIpHuSAJ9Fip2EPVl1UBoElCaAoFDp6oFyqhConabD2/yfdNJJ9MgjjxAOg1elhrylhxeCwjJRHjl89tlnyx+xAUqFhPNv7rrrLho2bJjzBaEEzxDgmSi8RAEXCIAACNhNAEGh3UQhzzcE+I/hW2+9lQYNGkR//etffWMXDHGfgJeCwq60RowYQccccwy9+eabXR/hswMEjjrqKIzUOsDViyInT55Mxx13nBdVh84gAAIeIICg0AOVBBXlEajdZOPdd9+l888/n15//XV5CqCkQBDwclDIFTRlyhTae++9KxsqBaLSXDSyX79+tHz5chc1QNFuE+DpxJtvvrnbaqB8EAABHxNAUOjjyoVpjRN4/PHH6Q9/+APOfWocGVK2QMDrQWHZdD5yhS8eNXzrrbfKt/FqMwE+1zSwB9rbzNKr4vbcc09asmSJV9WH3iAAAh4ggKDQA5UEFZ0hUDsqeNppp9FTTz3lTEGQCgJdCPglKCybtXTpUnEO5wknnEBff/11+TZebSSg6zrtuuuuNkqEKK8Q2HnnnWn+/PleURd6ggAIeJQAgkKPVhzUbo4ArxO87bbbaI899qAZM2Y0JwS5QKBFAn4LCss4kskk8ag7LmcIzJo1i3jECFdwCHBf9fbbbwfHYFgKAiDgGgEEha6hR8FuELjiiisoGo3SnDlz3CgeZYKAIODXoLC2evnoluuvv772Ft7bQIDXFu6www44ksAGliqLKBaLtN1222HkXeVKgm4g4DMCCAp9VqEwpzOBe+65h84+++zON/EJBFwmEISgkBFfeumltM0222CnUpv9bdGiRdS3b19sgmUzV1XEvfLKK7TZZpvRBx98oIpK0AMEQCAABBAUBqCSg2giH7zNh26fccYZxH9A4QIBlQgEJShk5p9++indf//9KuH3jS58XM6ECRN8Yw8MIRo/fjwddNBBQAECIAAC0gkgKJSOHAU6ReCNN94gPkaCL147yP9wgYCKBHbaaScV1ZKi0y233CKlnKAUcvnll9MhhxxCy5YtC4rJvrTzs88+o8GDB9OVV17pS/tgFAiAgPoEEBSqX0fQsBcCCxcupN/+9re0zz77EHesuEBAZQL8h19HR4fwWZX1dEo3Hgnh89Zee+01p4oInNwXXniBtthiC4rH44Gz3Q8Gjx07lrbeemvKZDJ+MAc2gAAIeJQAgkKPVhzUrhJ44okn6KWXXqrewDsQUJTAVVddVRkJqH2vqLqOqcUHcWNExH68Z555Jp1++umUy+XsFw6JthOYOXMm8XFIw4cPt102BIIACICAVQIICq0SQ3rXCTzwwAN0+OGHu64HFAABKwT4hwse0a69eNQQowNE6XS6Fgvet0Dg5ZdfFsdW/PnPf6ZPPvmkBUnI6hSBjz/+mIYOHUoDBw4k3lQGFwiAAAioQABBoQq1AB0aJsAL8P/617/Shx9+2HAeJAQBFQjU21ym3n0VdJalw4033kjhcJhWrlwpq0jflzNx4kT68Y9/TBdddBGtWrXK9/Z6wUD27wsuuEAcNTFp0iQvqAwdQQAEAkQAQWGAKturps6bN6+iOrborqDAGw8R6GlEsLsRRA+ZZpuqTz/9NB1xxBG2yYMgk8BNN91EG2+8MZ111lmUz+eBxQUCvO592LBh9KMf/Yiw0ZILFYAiQQAEGiKAoLAhTEjkBoGpU6fSHnvsQc8++6wbxaNMELCFQCNrBxtJY4syEBJYAnfeeSfxrrfHHnsszZgxI7AcZBo+bdo0Ovroo2nAgAF01113ySwaZYEACICAZQIICi0jQwYZBN5++20xajBnzhwZxaEMEHCEgJVRwJ5GEx1RTnGhPFUc663sr6RHHnlEnIO3995705gxY2j58uX2FxJgiV9++SXdfvvttNdee9GBBx5Ijz76aIBpwHQQAAEvEUBQ6KXa8rmufMh1eWOEr776yufWwrwgELC6XtBqej8zXL16tQheHnvsMT+b6Zptb775Jp1zzjnUr18/MZrFuzjjap7A448/TkceeaSYIjpixAiaNWtW88KQEwRAAARcIICg0AXoKHJdApdddhlts802tGLFinUf4g4IeJBAMyN/VkYWPYikKZWffPLJpvIhU+MEeDRryJAh9Lvf/Y7+8pe/0MMPP0yGYTQuIIApefOef/3rX8S7vDK3SCRCqVQqgCRgMgiAgF8IICj0S0162A6ewnTttdd62AKoDgKdCbSyRrCVvJ218N8nDppxOUeAZ2hMmDCBjj/+eOrTpw8deuihYorpggULnCvUQ5J50zOeGspBIG/e86c//Yl4l1dMwfVQJUJVEACBugQQFNZFgwdOEtB1vSJ+zZo1lfd4AwJeJ2DHaF8zo4xe59aI/nw+6fXXX99IUqSxgcBzzz0nppjy2jg+3uK4444TQeLs2bNtkK6+iFwuJ4JA3pyHZ7LwOaM8NfT5559XX3loCAIgAAIWCSAotAgMyVsncP7554tF+K1LggQQUI+AXesC7ZKjHqHWNLr00kuxI3FrCJvKzeu9J0+eLILEUCgk1iKefPLJFIvFiM/ce/fdd5uSq0qmd955hx566CH6xz/+Qaeccgr17duX9txzTxEE8uY8vOYdFwiAAAj4mQCCQj/XroK28UHKt956q4KaQSUQaJ2AnSN8dow4tm6RmhIWL14sFFu7dq2aCgZAK54yySOJo0aNoqFDh9Juu+1G66+/Pg0cOJAuvvhiuuGGGyiZTBIfy6BKQMWBbTabFUEs68cBLeu73nrr0e67704nnngi3XjjjWIkEOvbA+DEMBEEQKATAQSFnXDggxMEajcsqH3vRFmQCQJuEXBiLaATMt3i40S5L7zwAr366qtOiIbMJgh88803NHPmTLHO7pJLLqETTjiB9t9/fzH1ktfgceDIh7ifdNJJdN5559F1111Hd999N/FIXCaTIT6CiJcW8GHvH330ES1dulSs1ysvMeBXDkb5Pj/ndJyejzDi/CyH5bHcc889V5TD5XG5XD5PgT3ggANEEMv68cgg6/vtt982YS2ygAAIgIC/CCAo9Fd9KmfN/fffTzvuuKNyekEhELCTgJOjenaOPtppsyqyeL3buHHjVFEHetQhwLt18hTTZ599lh588EEaPXo0jRw5kv7+978Tr9ljP+fXXXfdVRz2vv3229NWW20lpqluuOGG4jm/8hEafJ+f86HwnJ43xinnZ3kst6OjQ5TDo5lcLpePCwRAAARAoD4BBIX12eBJiwS40+e1GbhAwO8EnF7/57R8r9fPqaeeSt99953XzYD+IAACIAACIOAaAQSFrqH3f8Fe33jA/zUEC+0gIGMkz8mRSDsYqCDj+++/V0EN6AACIAACIAACniSAoNCT1aau0hgZVLduoJn9BGSu+ZNZlv2k5EmMRqPyCkNJIAACIAACIOATAggKfVKRbpvBo4I/+MEPKJ1Ou60KygcBKQTcGL2TMSopBZ6DhcydOxfrmB3kC9EgAAIgAAL+JICg0J/1Kt2qe++9F2t6pFNHgW4S4JE7Ny63ynXD1mbLXLJkCV1xxRXNZkc+EAABEAABEAgcAQSFgaty+wz++OOPsZW3fTghCQRAwEYC5Y1nsOukjVAhCgRAAARAwLcEEBT6tmqdNYzPd9puu+2cLQTSQQAEQKBFAs888wzNnz+/RSnIDgIgAAIgAAL+JoCg0N/164h1r7zyCp144omOyIZQEAABELCbwM4770z/+c9/7BYLeSAAAiAAAiDgGwIICn1Tlc4b8u2334pC3n//fecLQwkgAAIgYCOBSCRiozSIAgEQAAEQAAF/EUBQ6K/6dMyaTCZD2WzWMfkQDAIgAAIgAAIgAAIgAAIg4A4BBIXucPdUqbfeeivxVvi4QAAEQMDrBN5++21auXKl182A/iAAAiAAAiBgKwEEhbbi9J+wL7/8ks4//3z/GQaLQAAEAkuA1xhi85nAVj8MBwEQAAEQ6IYAgsJuoOBWlYBhGNUPeAcCIAACPiHAgeEnn3ziE2tgBgiAAAiAAAi0RgBBYWv8fJmbd+kbPny4L22DUSAAAiAAAiAAAiAAAiAAAp0JICjszCPwn2bNmkU//elPqXzwc+CBAAAINERAp4imUVLvPLKeT0ZICyep892GBCIRCIAACIAACIAACEgjgKBQGmpvFHTNNdd4Q1FoCQJKEdAprGmU6BIU6skwaSEEhUpVVRdlCoUCHXzwwV3u4iMIgAAIgAAIBIsAgsJg1Xdda7EbX100eAACDRBoICg0dIq3hUnTNNK0MCVzhYrcfCYhgkpNC1E0nimNLOapo62d0plktwFnJTPetEzgtddeo//3//5fy3IgAARAAARAAAS8SgBBoVdrzka9//a3v9GqVatslAhRIBA0Ar0HhZmYRlokQXqhQNlkmwgOcwZRMdsh3nekc6TnUiIADHXkiMickspBZHsiRXoxaEzl2strqZ977jm5haI0EAABEAABEFCEAIJCRSoCauJLKtwAACAASURBVIAACHiZQG9BoUHJiEZaW4L0Iq8wNEjP5ahgGJQMa6S1ZyvGFzIx0rQYFUpBYUcO0WAFDt6AAAiAAAiAAAg4QgBBoSNYIRQEQCBQBIx6QWGksqbQyKepTUwd5emjGkXjaSpSKVisuW9OL42QXkdmoLi6YOyMGTNo4cKFLpSMIkEABEAABEDAPQIICt1j73LJ/EdsmHhfDD2ukSamq1lUqZinbGldVNMyLBaJ5CCgJoG8CPhimc6jerl4qLL7aDGfJ35qFAuUSydEYBjXi5QMaRRK8HRRHj8kMgo6ZbJ5MX20u81r1LTfX1odcMABlM1WR2/9ZR2sAQEQAAEQAIF1CSAoXJdJQO6YQSGvaeI/QvVCE5vm63HStLjg1bSMgNCGmf4nkImaG8ikxeI/g/S0uVYwmuINZQyKa9XgjwxdBJFx3aBcR0hMFzXXDBYowdNJw0kEhS67zPbbb0/Lly93WQsUDwIgAAIgAAJyCCAolMO5Uym5JK8Z4k0nYhRvj1I8Y+5CmM/EKVSaRhZNZCs7ELZHIhSLmRtTaFqUsqVNC418htpC5lS0cDRJ5m2D0u1tFG3nMsKUMwzKJqJmeZpGkfaUGK3gTSx4pJCDwkK6gzrSBcqnYqSFwhQORyjS1kaRSLsYSTQKGYryH6qsW6iNUvzXayFd2i1Ro7akXpHBhhZz5m6JnD7UliAz3sxTPTs6wcEHEPAsgQIl2krfk9L3OBKvjjYVsvwjSs3zSKL0nS1QnNcblp+FYuJ7V95opuvZh57FA8VBAARAAARAAASUJYCgUHLVFMUmEhHKFopUyKVEEBhO6GTk+A9Gvs/bEeoU0zRqS3OYZ+5AGGrPUNEoUJL/6GzPERk5EZTFRYRYpDTvbNiWFiMSYuMKrY0yeoEMMZrXZv6RaeQpqmnEoxO1QaGeCJEWzxEVC6TnC1TIZ8VB3DxawWueEhxMJnVBKp+OkhZKiIA1n2kXIxx5noJakZERf9ya2+0XTX0jqfp2SOaP4kDAaQLFQoH47LuC2FCma2kGFYtFKnbzzKhzv6sEfAYBEAABEAABEAABuwkgKLSbaC/yUhEOsHi9kHnxNvWhhE56gg+55jPJ0uJfO48ARjPV4K2U3gzyElTUeU1SmJLpDKXTGUq2m1PQCrxxRagc+HEmg/K5LGXSKUp0mCOU5gHb1ZFCLjsUN4M+zpEtTWeraMlrBzMZSiUTFOMRjXDpMG7WoRQglmXkU22lqW8lhQspoae5aUaYzJVTVApWzeCylBIvIAACIKAcgQceeICSSZ7OiwsEQAAEQAAE/EsAQaHUujUDtmhpuigXzRtRcEAmgsJwO6XTaUql0pROpShd2WzCnObJ6Q0RDNYGhZw+Rel0ipIpnnJqUKImKCyI0Tw+5yxJ2VxWjECuO1JYDQp1cX5atTyiArXztLZIOyUzWcqmqiOFZV3EuGMpsBR2iGC2BLaQJJ7yytvrl6er1trRxErGkmC8gAAIgIAcAocccgi98MILcgpDKSAAAiAAAiDgAgEEhZKhm8EfT8skokKmMn20wCNsoXhpvZ9BqbbyiGKdYKo0ApctbXYogjkxTbNzUKjz7oex0rqmYlZMOa03UlgoHaIdFzuKGmQYvAtNTuhY3lQxG+cRTXOEzwwKTZ3LI4XmvQiVj1bLcXoxrbWOHZL5ozgQAAEQaIbASSedRGvXrm0mK/KAAAiAAAiAgPIEEBRKr6IiJaM81ZM3lgiLIC0q1g7y/ZrNJiqbUHAwxWeWmYqKoCtkTt/MJasbyJjrETmNORppBn48ssgjdSW5oQhF27jsNtJLI3fiSIpEmMKJ2eYh2uW0Jf14o5pUjV6RaFQEiWKNoQhMNeI1kRwU8itfmXikWqbWVgoQ69thWob/QQAEQAAEQAAEQAAEQAAE3CCAoFAydd5cJlXePrS0Tb05ndNURGw2wSN0jV4Gb1zRW/pG0vRcIOtlRS0yeDONzme29VwCnoIACIAACIAACIAACIAACLhBAEGhZOrm9EqNwtF2ivJmMqGO0rb0khVBcSAAAiAAApYJHHXUUZTJ8CZguEAABEAABEDAPwQQFLpRl8UC5bIZymT10lmEbiiBMkEABEAABJohwFPycYEACIAACICAnwigZ/NRbba1tdH48eN9ZBFMAQEQAAH1CMyfPx9trXrVAo1AAARAAARaIICgsAV4KmVdsmQJffzxxyqpBF1AAARAAARAAARAAARAAAQ8QABBoQcqCSqCAAiAAAioR2DNmjX0/fffq6cYNAIBEAABEAABiwQQFFoEplryefPm0X333aeaWtAHBEAABHxPYPbs2RQKhXxvJwwEARAAARDwPwEEhR6u4wULFtDPfvYzD1sA1UEABEDA2wSuvPJKuuqqq7xtBLQHARAAARAIPAEEhR52gcMPP9zD2kN1EAABEPAHgWQyScuWLfOHMbACBEAABEAgkAQQFAay2mE0CIAACIAACIAACIAACIAACJgEEBTCE0AABEAABECgRQIrV66kVatWtSgF2UEABEAABEDAHQIICt3h3nSpN910E1166aVN50dGEAABEAABZwj079+fFi9e7IxwSAUBEAABEAABBwkgKHQQrt2in3nmGTrssMPsFgt5IAACIAACNhB46aWX6Le//a0NkiACBEAABEAABOQSQFAol3fTpfF5WKlUqun8yAgCIAACIOA8Af7xbs6cOc4XhBJAAARAAARAwEYCCApthAlRIAACIAACIAACIAACIAACIOA1AggKPVBjuVyOPvzwQw9oChVBAARAAARAAARAAARAAAS8RgBBoeI1du+999Lpp5+uuJZQDwRAAARAoJbAQQcdRNOmTau9hfcgAAIgAAIgoCwBBIXKVg3R3LlzaZdddlFYQ6gGAiAAAiDQHYFZs2bRXnvt1d0j3AMBEAABEAAB5QggKFSuSqoKffzxx/Tdd99Vb+AdCIAACICAZwgkEgniHUlxgQAIgAAIgIDqBBAUql5D0A8EQAAEQAAEQAAEQAAEQAAEHCSAoNBBuM2K5u3Mp06d2mx25AMBEAABEAABEAABEAABEACBhgkgKGwYlZyEn3/+OW255ZZyCkMpIAACIAACjhM48cQT6bPPPnO8HBQAAiAAAiAAAs0SQFDYLDmH8u233340ffp0h6RDLAiAAAiAgGwCkydPpuOOO052sSgPBEAABEAABBomgKCwYVRICAIgAAIgAALNEfjTn/5Eb731VnOZkQsEQAAEQAAEHCaAoNBhwBAPAiAAAiAAAiAAAiAAAiAAAioTQFCoSO3cdtttVCwWFdEGaoAACIAACIAACIAACIAACASFAIJCBWr6oosuoptuukkBTaACCIAACICAUwQ+/fRT6ujocEo85IIACIAACIBA0wQQFDaNzp6Mb7zxBg0aNMgeYZACAiAAAiCgNIGhQ4fSpEmTlNYRyoEACIAACASPAILC4NU5LAYBEAABEHCJwMKFC2nAgAEulY5iQQAEQAAEQKB7AggKu+eCuyAAAiAAAiDgCAFeP75y5UpHZEMoCIAACIAACDRDAEFhM9RsyMMHGY8ePdoGSRABAiAAAiAAAiAAAiAAAiAAAs0TQFDYPLuWcu677740Y8aMlmQgMwiAAAiAgDcJLFq0iJYuXepN5aE1CIAACICA7wggKHShSuPxOJ133nkulIwiQQAEQAAEVCCAtYUq1AJ0AAEQAAEQKBNAUFgmgVcQAAEQAAEQkEjgxBNPpIceekhiiSgKBEAABEAABLongKCwey64CwIgAAIgAAKOEuC15bfffrujZUA4CIAACIAACDRCAEFhI5RsSsNrSCZMmGCTNIgBARAAARAAARAAARAAARAAgdYJIChsnWHDEnbZZReaO3duw+mREARAAARAAARAAARAAARAAAScJoCg0GnCJfl8/AQ2l5EEG8WAAAiAgIcIRKNRevfddz2kMVQFARAAARDwGwEEhZJq9JNPPpFUEooBARAAARDwEoHHHnuMjjrqKC+pDF1BAARAAAR8RgBBoc8qFOaAAAiAAAh4j8CAAQOIj6nABQIgAAIgAAJuEEBQ6DD1L7/8kjKZjMOlQDwIgAAIgICXCaxdu5bWrFnjZROgOwiAAAiAgIcJICh0uPIGDx6MoNBhxhAPAiAAAiAAAiAAAiAAAiDQPAEEhc2z6zXnE088QUOGDOk1HRKAAAiAAAiAwLx582jx4sUAAQIgAAIgAALSCSAodBB5Op2mr7/+2sESIBoEQAAEQMAvBHhNIa8txAUCIAACIAACsgkgKJRNHOWBAAiAAAiAQB0CRxxxBE2dOrXOU9wGARAAARAAAWcIICh0hiukggAIgAAIgIBlAjxaOHnyZMv5kAEEQAAEQAAEWiGAoLAVenXyXnfddTRy5Mg6T3EbBEAABEAABEAABEAABEAABNQhgKDQ5rr4/vvv6b/+679slgpxIAACIAACIAACIAACIAACIOAMAQSFNnMdP348TZkyxWapEAcCIAACIBAUArxB2aGHHhoUc2EnCIAACICAAgQQFCpQCVABBEAABEAABGoJHH/88fTwww/X3sJ7EAABEAABEHCMAIJCx9BCMAiAAAiAAAg0R+C5557DaGFz6JALBEAABECgCQIICpuA1l2W1atX09lnn93dI9wDARAAARAAAcsEvv32W8t5kAEEQAAEQAAEmiGAoLAZat3kufDCC+nmm2/u5glugQAIgAAIgAAIgAAIgAAIgIC6BBAU2lA3q1atoo033tgGSRABAiAAAiAAAiaBb775hhYsWAAcIAACIAACIOA4AQSFNiDmjhvTfGwACREgAAIgAAKdCBx88MH04osvdrqHDyAAAiAAAiBgNwEEhXYThTwQAAEQAAEQsIlAIpGgk08+2SZpEAMCIAACIAAC3RNAUNg9l4bvvv/++6TresPprSQcPHgwaZoWmH877bRTYGwNUr3C1mB8h7m9wmU/ge+++46GDBliv+CASkS/Goz2CP0O6tkPPiC7X0VQ2GLHuOmmmxIfNOzExQ4dpCto9gapbmGr/wng++v/OvaDhUHz06DZ6wcfhQ0gUCYg+/sbrKijTNmm1zvvvJPOOussm6StK0a2M6yrgdw7QbNXLl2UBgLOEsD311m+kG4PgaD5adDstcdLIAUE1CAg+/uLoLCFen/kkUdo5cqVLUjoOatsZ+hZG+efBs1e54miBBCQRwDfX2dZjxs3jnhTM1ytEQianwbN3ta8A7lBQC0Csr+/CArVqv9O2jTjDEaxSMVikYxOkrzxoRl7vWEZtAQB/xPA99fZOj711FOJA0NcrREImp8Gzd7WvAO5QUAtArK/vwgK1ar/TtpYcoZijmKhzguLY8lcRV4hl6OC5UhRp4imUVK3nLGpci3ZWykBb0AABFQggO+vs7Xw/PPP0+9+9ztnCwmA9Pp+alAyrFEk2ezGcQbpOd3GH2TtkVff3gBUNkwEAY8TkP39RVDYhMPMnDmT/vCHPzSR01oWK86QjGikRZOULxpEhkF6pkPs5NmeLYpCE5pGHZb7urwIChMtBIVWyrVirzWSSA0CIOA0AXx/nSZMxEsWVq9e7XxBPi6hvp+aQWEoYbmjLNHSRZ/bbO51kdsjr76965aIOyAAAmoRkP39RVDYRP0ff/zx9PDDDzeR01qWxp3BHNErB4DlUjIdbdSRKVCmPVI66iFMKd2gfCpGsVS16+r0uZClWDhEmhamaKxN5CsHhUY+Q9GwORoZjiaoHCsW0u0UjScpWS4n0iGedS23rFe918btrScB90EABNwigO+vW+RRrhUC9f3UDArDIijMU3skRslUQvwwynk60uU+06BMPFrqUzUyZ+QUqKPUN2qhGOlGnjra2imdSVJY0yihv0+xSIzKEojynT4XsmY6Lof71rzRVR4RFXIUq5QRpYxu/uBLhTS1xZKUTsZI0yKVfrnMpL695RR4BQEQUJWA7O8vgkKLnvDZZ5/Rb37zG4u5mktuxRlSbWaw1tYep0w2RwUeMSxdRT1DUU2jtkRGTCHVEyHS4tWppZXPRk50YFpbgnK5LLWXpqOK6aPFLIW4w+pIk67nqJ07p1CcuFvSk2bQGW5PUS6XpjZNI/61tWu5ZX3qvVqxt54M3AcBEHCHAL6/7nBHqdYI1PfT2qDQ/KGVfxxNZXOUjnMfF6acQVTMcPDVRhm9QHo2IYLD9lyR9EyCQlqIEpkcGVTOr1F7IkV6URfPOL95VT8belLIiCazlNczov/UOqatI4/7VZ4NpBcKlG4Pk6aFiCcClfNzQJhIZUWfXC6FX+vbW5sK70EABFQkIPv7i6BQRS8o6WTNGQqUTrRTuHZdYShGudKPicmQRvHSz5R6Ikyh8gcO6kqfDZ07uDbKl5mUgkQeKTQDv45qh1NIi84mUygHhfHKWgo9GSYtnBSfa8sti633as3eelJwHwRAwA0C+P7KoX7ggQfSV199JacwH5ZS30/XDQo7KlGcLn4w5R9I8+JHUA4Kzc61qOdIFwv2OU24NBpoBoUd5Q6YzGcVcTWf9Xio0l8y7mIuQdGODPfMFXlGLt65byaD4hqvf8yXgsIQZSsBZ+dKq29v53T4BAIgoB4B2d9fBIXq+UBFIyvOUKwZGSSjSHo2aU57iaaJyKCECArNXqMcBJYLKn82A79EJbjjTok3mjGDQnMqKetU+0886xpkclAY4qCwc7nl8uq9WrG3ngzcBwEQcIcAvr9yuGMX0tY41/fTzkEhB3idgzizLyRDp44IL7EoL6WIkxkf1gZ+/L6UXqhb+4xvlD8bxD+chrvd3KacxvzhtvxDq2m9qSvPyDFHCsPrTBstU6pvbzkFXkEABFQlIPv7i6DQgicsWLCAXnnlFQs5WkvasDOUpp90/aXQ/EWTg7zOwRkHgVpHdfpoNqaJkcN8igO/mtHA2qCQ84QSYqTQ4NjSKFA2kzOnjyIobK2ikRsEfECg4fbKB7a6acJTTz0lZaMzN210suz6ftpYUGgU8lTgQUL+8TWXFkszzJk3ZhBnTsjh912DwlA1yCxmKtNRM1GNtPZsxWRDT1Nc7BxelVdI8xrG6myc8g+9vFMqgsIKOrwBAd8RqN9eOWMqgkILXPfff3+aNm2ahRytJW3cGQqiY9Ii/IuliNjEej6xBkF0NuavkdHS5jIiKNSi4pfFYimgFL9UlqaEtpcW1OcS1Y1mijnezTREqdKUmRwHiVpETDUtjzSWrRXTR0sjhfwraLnc8vN6r43bW08C7oMACLhFAN9ft8ijXCsE6vtpdfStOpJXllwN8nIdvJ7e/IGUgzNezy+CQsNMY/aR1fRCQulZmxgRLJLYLby0KYy5RjFEmTzvHJ6ndh6BbM/xYkERWAp5BQ4iNWrPmIs7Cpl2c/lGZU1h7ahmWWfztb69ndPhEwiAgHoEZH9/ERQ26AOzZs2ivfbaq8HU9iSz4gz86yJP9eQ85X+haIIKJVUy7eZ0lzjPhynmzCBSpA2JjidS2oZbFzuYlWSEI+JZ+ZzCjFhsX5YfomQpQFw3KIxU1kh0KrcXLFbs7UUUHoMACEgmgO+vZOAorikC9f3UDArNcwo5IKsNtMylFKIvLGS79LVtYsMXokJpczYeEaxJX9Iyl6zuWBoSO3yXdwo1ShvHlPpWsXspZ6qVR6SneIObcv+rUfnHW3OkMFKzs2lnLPXt7ZwOn0AABNQjIPv7i6CwQR/gg4PnzJnTYGp7kjXjDMVigQqFItUuMexeG4N4HWK3a9ONonjWbT7xrLR7TbcJmr/ZjL3Nl4acIAACdhLA99dOmpDlFAG7/LRY5H7SYl9oFMkQ6y/Wtc7gvrXOs0pqTtNQ/17JIQLJ6ie8AwEQ8BIBu9qrRm1GUNgoKRfSyXYGF0zsVOTgwYM7fcYHEAAB7xAIWnulbs1UR6kMnXetrF2LZk3rQi4njjESa9j4rL7qzivWBCmUOmh+in5VIeeDKiBgkYDs9gpBocUKkplctjPItK1rWccddxxNnjy56218BgEQ8AiBILVXaldJzXo2I0/ZbOWQIctqJzgQLB1llM9lS7tsWhajVIYg+Sn6VaVcD8qAgGUCstsrBIUNVNHw4cNp7ty5DaS0N4lsZ7BX+8alcTDInRcuEAAB7xIISnvVtYYKfPxPKERaqI3iiQ6K1qzlzmcSYl02b9IVjWdK0/Xz1B6JUTKVqKxN6yht7sWyjXyGomFz7Vg4mqgcNVBId1AskaZkrHyunUGZeHWdWqQ9VTpHtiYoLGQo1sHl5qk9HKZIJEKRSBtFo1GKtHWY69AMneJR3jiMywxRu9j5kijTzge2870wpXSDMh3tlBbn8fFytxzFSjpqoWjlzD4qpKktGqdU0twIhTcjS/MGKgpdQfFT9KsKOR1UAYEmCchurxAU9lJRb7/9Nv3qV7/qJZUzj2U7gzNW9C41KHb2TgIpQMC7BIL4PTY3+dCoLZkRZ8MyAw6ExH5eWd6xWaOOdI70XEoEhyFxFJA5vVMEW9kcpcUGXqVNTYpZCmkahTvSpOs5aufAKxQ3j/4Rh6ZrpEXaKZXNUyFt7g6dyuWpoGeId5vmw8zNnTPN4xDM6aN8LFGRsqkUpdJpyqRMvTStXWxElmljnWOUyxdIzySEzsm8IXawjmoatSUyVDAM4lHDuM4Bni7K0qJJ0guF0iYpIbHZSpmHFu6gbC5H8Yi5U6dKYWFQ/DQodnq3xYTmINA7AdnfYwSFvdQJ/6J622239ZLKmceynaFqhUF6Tu9+E5pqIlveYXqLLRghBARcJ+Bee+We6Xo8RFo0XVHAyHFQxQeJmztZ1p4/V8jw7pExKpTOf62uzzNH9nhnS10EfjVnxZaOCcoUqPTMDBC5QCOfo0yutL+0UaBEWKOw2EW6OlJo6KwPB4XVS09yMBkilslXPpuhXGkE0ChkRfCaEMEfiYPV42L6aPWsWyPH6xTbxHFEpgSD4qWA1AwKa87jE0celXfZNFO7/b97fop+1e26R/kg4DUCstsrBIW9eMh//vMf+v7773tJ5cxj2c5QtUIXvxaXlpJUb9v8DtNbbAYKcSDgIgH32iu3jDbPfxVnvJZUMHI8bbIUFPIoWc0RAuZ7DpA4aOt83EH5oHMzYFs3Hwdp1fNfzcI4gKtM4SyVYx4tVD8oLGZKo5fZ6q6ZPP2Vy6/V1QwKq4Fg+bB0HikU59yGkzWBZvV8v65BqBkkMg+36mjdct3zU/Sr69YG7oAACPREQHZ7haCwp9pw+Zl1Z+i8xiQm1oYYlIqGqb38szAvB8l0UDiaIj6QonZNipm+QB2VtSIxszM38pQorTkJhXn9SKmHF+tHEpQqnW0YaotTNpep/KESLa1NqYfRun31JOE+CICA2wSC+H3OxDTSxJRQk74ZFJWCwpBGoUROPOAW0yjolBGbvvQQFCbClYPRxekERoGymVxp+ig/KwdjpZHItqSY2smFZKJcHv+UVycoLI06mgeol73FnMralsyVjjEqUEwzp57WBoK17wtpXsdYu6OpGTzy+X7+DAq76yfRr5Y9CK8gAALOEZDdryIo7KEuly9fTmvWrOkhhbOPrDpDUUxPaqOMXiA9a64Nac8ZlOuoXddRndbUffqiWFcS0kKUyOTEWpQO/hU53EG5vE6pdt6QoMv6kUiccrm0uc5E06g9maFs2vxFWixx6QYTpo12AwW3QMDDBKy2Vx42taK6GSCFKK0XiYo54jV45TWFuY6QmC7Kj/ggcp7eqYWTpaCt+5HCYo7bzRClzEyU4yBRi4ipmuZIYXkqaLkdzwhdirmkGOkLxzkI7SYoNPSSblHKFQpUyOcpny+QIUYttcqPhuUD1uM5VtocCY2mONCsGTUsZERZ7RlzV9NCxtxUJlOkukGhSidZWPXT7vtJ9KuVLwHegAAIOEbAanvVqiIICusQ5ICwX79+dZ7KuW3VGfJiPQoHhebUoKKeI53XiuTNPxjEjCEjJzYy4I0E6qYXf1SExc505Y0DuMM3L/OX5FimQF3Xj4hpRZFUKZ35C3R5bUo5N79i2mgtDbwHAX8QsNpe+cNqHkUyN3xh+8MhDgrNDVw4EBQbrZSnZoZKMy9K7Ws1UKqeK8hMMmLjmfJ0zhAlS+25WG9YM22TZ3xwmea/CLWXZnPE9dliV1NeoyhG7kIJKoq1feW05VczMM2IH/pK9yIxioppr+VnHNhqxEFiMlTeaIZIT/H6yLIcjdpLu6eWyyvPFjX7iIi5y6kiFc56W7nq9pPoV61gRFoQAIEmCFhtr5ooolMWa61jp6z+/jB27FjioyjcvCw7g6FTR8TsxDlvOBovnStVpHZNo2imSMUsd+alP1rqpq9ObyoHhSyv9l91qlB1GhEHheb0JaZW/bW6K0PLdnUVgM8gAALKEQji97qoZyiVqa6+Loo1heXRPLOKjGKRisVymNRgtRmcp/JLXP1MhtFJtiHmnNZPXu+J0LEmb83belmIWMdCsTTttH4y1Z5Y9tO6/ST6VdXqFvqAgN8IWG6vWgSAoLAOwFgsRu+//36dp3JuW3UGo5Cngpj1UyQ9lxbThULm1nHm5gCRDoq3lXeo4zUu9dKbQaGYNCR2rwuTOZtIrIwhPZsRwWbX9SMiKCyVVy8oxLRROb6DUkBANgGr7ZVs/ZwozzzyQaNIe7KyttqcbulEaZBpBwGrflq/nyT0q3ZUCGSAAAjUJWC1vaorqMEHCAobBOVGMqvOUF47aP6+bFCqTaNyUMiHCrM8/pcubUVeN31pnYlY11I6Nysm1pXwmcXlc6zWXT/SW1CIaaNueBHKBAE5BKy2V3K0cr6Uop6lZLyDYrF2SpWPiHC+WJTQJAGrflq3n+Ty0a82WQvIBgIg0AgBq+1VIzJ7SoOgsCc6Lj+z7AyFrFhLwvnMf23iQGHTjCLFxUYHCbGTnbhXN32B2sXaGPO8qUKGz6Uqy9QoljSnS3VdP9I1KOTDlGvXSwKGoAAAIABJREFUFFq2x2X+KB4EQKBxAvh+N87K7pSHHXYYPfPMM3aL9aU8y35at59kPOhXfekkMAoEFCFgub1qUW8Ehd0A5MPqP/nkk26eyL3VrDPwWpR116OU1j+UhwlrTOk+fU0C8ZbXrhRrzqbq+rznz5g22jMfPAUBrxNotr3yut0q6N/e3k4XX3yxCqoor0Ozftp9P4l+VfkKh4Ig4GECzbZXzZqMoLALuffee49++ctfdrnrzkfbnCGfLo0gRsXW5rKtwbRR2cRRHgjIJ2BbeyVfdc+XuHTpUpo6darn7ZBhgG1+in5VRnWhDBAINAHb2qsGKSIo7ALqiiuuoKuvvrrLXXc+7rTTTp2mbbJzePHf4MGD3QGIUkEABKQRkN15STMMBfmKAPpVX1UnjAEBXxOQ3a8iKOziTq+//jqtXLmyy113Psp2BnesRKkgAAJ+IID2yg+16H8b4Kf+r2NYCAJ+ISC7vUJQqLDnyHYGhVFANRAAAcUJoL1yt4Ieeughuvfee91VwgOlw089UElQEQRAQBCQ3V4hKFTY8WQ7g8IooBoIgIDiBNBeuVtBr776Kh144IHuKuGB0uGnHqgkqAgCICAIyG6vEBTWON6hhx7q+oH1NeqI9YO1n/EeBEAABFQlILvzUpWDm3qhDnqnD0a9M0IKEAABNQjIbq8QFJbqff78+bTzzjur4QUlLWQ7g1LGB1iZ5cuX01tvvUXpdJruv/9+uummmygWi9Gpp55KRx55JB100EF0zDHHCH/t378/bbvttrTFFltQ3759acMNNyTe2Idf+TPf5+ecjv372GOPFflZDstjuTfffLMoh8vjcrl8XCBglQDaK6vE7E//4YcfkmEY9gv2kUT4qY8q04Ip6FctwEJSZQjIbq8QFJaqfvTo0XTppZcq4wisiGxnUMp4nyvDf7hNmzaNHnjgAbroootEsDZw4EARxPXr149+/etf09lnn02nnHKKeD5q1CgaN24cpVIpeuWVV0jXdeIfMhYvXkyFQoGWLVtGK1asoDVr1ghy/Mqf+T4/53ScnvNxfpbD8ljuhRdeKMrh8rhcLn/LLbekffbZh/h8SdaP9WR9V69e7fOagXnNEkB71Sw55JNJAH4qk7bcstCvyuWN0pwnILu9QlDofJ02XYJsZ2haUWTskcAXX3xBTz/9NF133XUiyNpll12oT58+tP/++9PIkSPFSOAjjzxCM2fOFEFcj8IkPfz888/pjTfeID5jkkcq+QcT1nejjTaiX/ziF3T88cfT9ddfL+ziQ51xgQDaK/iAFwjAT71QS73riH61d0ZI4X0CstsrBIUK+4xsZ1AYhadU4ylckyZNomHDhtHuu+9Om2++uZiqyQEgB1lz5871lD1dlX3//ffp4YcfFoHiaaedRpttthntscceNHz4cEomk/TRRx91zYLPASCA9sr9Sv7ss8+If3TCVZ8A/LQ+G5WfoF9Fv6qyfzqlm+z2CkEhEX355Zdiip1TldqsXNnO0KyeyEdi/R8HgYMGDaIddtiBhg4dSnfddRe98847gcAzZ84cGjt2LJ1wwgm0/fbbi10QOUjkEVJcwSCA9kqNeh4wYAAtXLhQDWUU1AJ+qmCl1FGJ17mjX0W/Wsc9AnFbdnuFoJCIhgwZQk888YRyDibbGZQDoLBCvFYvkUjQ0UcfTeuvvz4dfvjhIghctGiRwlrLUy2fz4sgMRwO0wYbbCA2xhk/fjzxlB9c/iSA9kqNej3xxBOJzyzE1T0B+Gn3XFS4i36151pAv9ozHz8+ld1eISgkoh/84Af03XffKedPsp1BOQAKKsTTJn//+9/TYYcdRieffDI9+uij9M033yioqToqrV27lqZMmUJtbW2C2xFHHEG8hhKXvwigvVKjPr///nsl+zM16GADN1XqoVYP9Ku1NBp7j361MU5eTyW7Xw18UDh9+nSxLb+KjiPbGVRkoIJO7CM8hWXjjTcWG6z8+9//VkEtz+owdepUsdvqpptuKtYhzpgxw7O2QPEqAbRXVRZ4py4B+KkadYN+1d56QL9qL09VpMlurwIfFKpS8d3pIdsZutMhyPd40xTecXO//fYTU0NXrVoVZBy22/7111+LKab77rsvHXDAAWLzGtsLgUBpBNBeSUPda0Hffvttr2mCmgB+6m7No191lj/6VWf5ypYuu71CUCi7hi2UJ9sZLKjm66S33XYb/eQnPxGbpsyaNcvXtqpiHB/Hwcdc7LjjjjRmzBhV1IIeFgigvbIAy+Gke++9N7355psOl+JN8fBTd+oN/ap87uhX5TO3u0TZ7VWgg0L+ReX555+3uw5tkyfbGWxT3KOCbrjhBrEpSjQapQ8++MCjVnhb7SVLltA555xDm2yyCY0aNcrbxgRMe7RX6lQ4HxXzz3/+Ux2FFNIEfiq3MtCvyuXdXWnoV7uj4o17sturQAeFt99+O40YMUJZz5DtDMqCcFgx3hVzyy23pEsuuYR48TYu9wmsWbNGrPXdeuut6cEHH3RfIWjQKwG0V70ikpbgnnvuobPOOktaeV4qCH4qp7bQr8rhbKUU9KtWaKmRVnZ7FeigkHeRVHnTENnOoMZXQJ4WL774ojh0nXfF/Pzzz+UVjJIaJsCHcZ900kkUCoXopZdeajgfEsongPZKPnOUaJ0A/NQ6Mys50K9aoeVOWvSr7nBvplTZ7VWgg0I+z4m371b1ku0MqnJwQi+eXnXmmWcSH7qOS30Cs2fPpjPOOEP8U1/bYGqI9iqY9e41q+GnztUY+lXn2DohGf2qE1TtlSm7vQp0UGhv1dkvTbYz2G+BehKfeeYZ+uEPf4j1NupVTUMa8bS4zTffnJ577rmG0iORPAJor+SxbqQk3i1ZxfN3G9HdyTTwU/vpol+1n6lMiehXZdK2Vpbs9gpBobX6kZpatjNINc6FwkaOHCkOT//qq69cKB1F2kXgiy++oEMPPZQuv/xyu0RCjg0E0F7ZANFGETztGutx1wUKP12XSSt30K+2Qk+dvOhX1amLWk1kt1eBDQofe+wx4nnVKl+ynUFlFq3qxmfhTZo0qVUxyK8QgYkTJ4rzDRVSKdCqoL1Sq/pvvfVWOv/889VSSgFt4Kf2VQL6VftYqiIJ/aoqNWHqIbu9CmRQuGLFCurbt69aNd+NNrKdoRsVPH9rwYIF1KdPH5oxY4bnbYEB6xLIZrPiu5zP59d9iDtSCaC9koq718KmTZtGvMYLV2cC8NPOPJr5hH61GWreyYN+VZ26kt1eBTIofPzxxykSiahT63U0ke0MddTw7G2eJtq/f38yDMOzNkDx3gnwjzw77LAD8Ssu9wigvXKPPUpunAD8tHFW3aVEv9odFf/dQ7+qRp3Kbq8CGRS++uqrnth1UrYzqPEVsEcLHhkcOHCgPcIgxRME9txzT5o1a5YndPWjkmiv/Fir/rMJftp8naJfbZ6dV3OiX3W35mS3V4EMCt2t4sZLl+0MjWumdko+ZmKPPfZQW0lo5wiBXXfdlXRdd0Q2hPZMAO1Vz3zcePrWW28RbyCBq0oAflplYeUd+lUrtPyVFv2qe/Upu71CUOheXfdasmxn6FUhDySYN28eDRo0yAOaQkWnCPDmBwsXLnRKPOTWIYD2qg4YF2+fe+651NHR4aIG6hUNP7VeJ+hXrTPzWw70q+7UqOz2KnBBIU8d5S2UvXDJdgYvMOlNx0022YRWrlzZWzI89zEBXvPCZ1HikksA7ZVc3o2UNm7cODr11FMbSRqYNPBT61WNftU6M7/lQL/qTo3Kbq8CFxRecMEFdMstt7hTuxZLle0MFtVTLjlvHsSbCOECgSlTptAxxxwDEBIJoL2SCLvBoubPn0+XXHJJg6mDkQx+aq2e0a9a4+Xn1OhX5deu7PYqcEHhfvvtR9OnT5dfs02UKNsZmlBRmSx33HEHnX322croA0XcJ3DmmWdSPB53X5GAaID2KiAV7XEz4aeNVyD61cZZBSUl+lW5NS27vQpcULho0SK5NdpCabKdoQVVXc26bNky2nnnnV3VAYWrSWDAgAHE015wOU8A7ZXzjFFC6wTgp40xRL/aGKcgpkK/Kq/WZbdXgQsK5VVl6yXJdobWNXZHwvDhw2ns2LHuFI5SlSZw++2304gRI5TW0S/Kob1SsyafffZZ+uijj9RUzgWt4KeNQUe/2hinIKZCvyqv1mW3VwgK5dWt5ZJkO4NlBRXIUCgUaNttt1VAE6igKoGtttqKli5dqqp6vtEL7ZWaVck/ivAfcbhMAvDT3j0B/WrvjIKeAv2qHA+Q3V4FKig84ogj6JlnnpFTkzaUItsZbFBZuojLLruMJk6cKL1cFOgdAuPHj6crr7zSOwp7VFO0V2pW3J133klnnXWWmsq5oBX8tHfo6Fd7ZxT0FOhX5XiA7PYqUEEhb1PvpfVFsp1BjovbW8p2221HH3/8sb1CIc1XBJYsWUI77rijr2xS0Ri0VyrWCtF7771Ho0ePVlM5F7SCn/YOHf1q74yCngL9qhwPkN1eBSYofP/99+mAAw6QU4s2lSLbGWxSW5qYGTNmEB+oigsEeiOw11570axZs3pLhuctEEB71QI8ZJVGAH7aM2r0qz3zwdMqAfSrVRZOvZPdXgUmKHSqwpyUK9sZnLTFCdlXX3013XjjjU6Iri+zkCGul0TO6JymkBb3k/o0Cmkh6vq4c2J/fTL0JGlaG+lkUELTqKMX4wu5HBW64HOayHXXXUf8D5dzBNBeOccWku0jAD/tmSX61Z75yHqKflUWabXLkd1eIShU2B9kO4PCKLpV7Y9//CM9+eST3T5z7maR4iGNtFimUxF6MkKaFqU8FSmXyVGx01N/fzA7r7AIhPO5LOm9GC8CR10uk1QqRUceeaTcQgNWGtordSuc/Z+PGMBF4sc7cKhPAP1qfTYyn6BflUlb3bJk96uBCQp5S+61a9eqW/PdaCbbGbpRQelbAwcOpJkzZ0rXsZCKlkbGykUXqUPTKNSRI6ICxWNxypceGfkMRcOa+EMkHE2QbhAVc0kKtyVLgWOBEm1hak+XchTSFIl0UKEsuvJaoGQsLORoWpgSmXIJfJ8DUi4jRPFMOdrKUywSo/InoprPhTS1xZKUTsZI0yKkGwZl4myTqWcsyXaYV3f6l5+VX8udF9uW6WindGkYUM/EKVSSGY4lhU2Z9rKuYUpxBkkXpkQ5DxrtlfOMmy3hmGOOoSlTpjSb3Vf54Kc9Vyf6VeaDfrVnLzGfol9thFJraWS3V4EICletWkUbb7xxazXjQm7ZzuCCiS0V6dpi+GJWBDvxXGlIrDx1VMRpenX6aClduCNNup6jdg4OQ3EqltJnOHvRnI6qRZKCRZ5HHMNJ6hwuGZSMcMAWpayep0yiTQSAOcOgVFvpfr5AuXS7COw6siy4Rg8hufrZDOI4X4QSqSwtynBw2EYZvUB6NiFktPMU0Hr6d6m1alBoTh+Ni8i3NM02q1NBz1AbB4cdOSrqGYpqGrUlMlKnkPKPQttvv30XzfHRTgJor+ykaa+sWCxGo0aNsleoR6XBT3uuOPSr6Fd79pDqU/SrVRZOvZPdXgUiKHz55ZfpN7/5jVN15phc2c7gmCEOCDYMgwYPHuyA5EZEGpTiIK00hdScOtpRGvnTKayZUyk73+cfH811h5lCgdpLa++K2Y7SCF1UjKSx3LZUl3FCI0dhTaNkZWStSMlolDL5nAhOk+VBQyLKxUNkBphVPUyLqp/NIC5E2VLkKQJRERSaQW5Rz5FeMKi+/p0ZdQoKQxqJoDDP6ww1SmR4pSGRUdCFTM6ZFGk6y5DxyT1/kWGd+2WgvXK/DuppkMlk6L777qv3OFD34af1qxv9KvrV+t7R/RP0q91zseuu7PYqEEHhAw88QDfffLNddSRNjmxnkGZYCwW98cYbdOyxx9LWW29NP/7xj107jqKY5VG5NrGGMK5pFEmWJ2pWgy89ySN65pTM2teEblC2XaNQPEuZ9jBFkxkRJCb1nBhFS3eNCXUevYvUTAU1ARrd3BeBXChBBlX1MFNXP1eDuFJFGDp1REIVXcPRuFgX2JP+tVVYlWdQohwUkkGZjhr7IzFKi8WGtWlqpTj7Hr9oOsuXpaO9cp4xSmidAPx0XYboV6tM0K9WWfT2Dv1qb4Rafy67vQpEUNh6tbgjQbYzuGNlY6U++OCD9Mtf/pI222wz8cfneuutR26tfTA11imiaRSLm1M2xVRQ8aAafOmJMGmhhBhBNMzhMsqWNqExcvFSEBaiTJGDxBBpvIGN1r7uJjWlEUYxK1SUYVA6HqfsWzzy2Hmn0/JIoRkU1jwT01TNEcxqEGdaYhTyVOBBQqNIei4tAtNQXKee9DdzlvKL3UfDYm1iJSg0ipQ3hVJBz1EiylNnOVh1JyjE2ofaGnPmPdorZ7hCqr0E4KdVnuhXNUK/WvUHq+/Qr1olZj297PYKQaH1OpKWQ7YzSDOswYL4V6jzzjuP+vTpQ5tuumllJIu57LPPPuTOLmlV5TMcyPFIYKR2DWA1KCzmeGpoiFKl7ThzHCRqEXMTGiMngkpeJ8gDg8WMGVyam9VUyzDfFSjGG9m0Z8RUzHwpbbbY+b5RyIjppLFMgchgPTRqEyOYxdKaRN5Uhh/x1E4zQGT5uQ4zYDMnj5rrKTgo7FH/GhWr8qoBnyFsD1N52aWe4lFDMyjk6aPRVHlktUaQg2+x+6iDcEuig95eOU+4tRIef/zx1gT4JHfQ/RT9atmRO/ef6FfLXBp/Rb/aOKtmU8pur3wfFH777bc0Z86cZuvD1XyyncFVY7spnI8Q2HDDDWmTTTbpFBAylxtuuIGuueYauv7667vJKeeWGQxp1M5BWOWqBoV8KxMv77bJo4AhSlbOayhtHhMtHW1RNAO6eJ0z/ox8WgR5bDv/i5WCKkNPVXb45Pvh9nRlk5pcsrqjaCjMAWxtUFgzHbWQLQWo5amubZVfT+vrXzG4FGSyPKO0XpCHRQsUF5vjlGVqlMianMrBdD1bq5Lte3fttde66iv2WaKuJPY/XOoSGDBgAC1cuFBdBSVpFnQ/Rb9adTT0q1UWzbxDv9oMNWt5ZLdXvu/FX3zxRTr44IOt1YIiqWU7gyJmd1JjyZIlxFNcDjnkEOrbt68IiH74wx9SNpsVx1HwFFLlL6NIxaI5DtearoaQU9ofpkYU3y9QsbjuE54SypsHNHKxjt3q2YL+BsssFCuBaiN6OJEmFArR7NmznRANmSUCaK/UdgXuB7k/DPoFPyVCv1r7LUC/WkvDynv0q1ZoNZdWdnvl+6DwlltuoQsuuKC52nA5l2xncNncusXPmzePfv7zn4vposyE1xOWLz5mgKfD4AKBegQWL15M/fv3r/cY920igPbKJpAOieEf115//XWHpHtHLPzUrCv0q97xWRU1Rb8qp1Zkt1e+DwovvfRS+t///V85tWdzKbKdwWb1bRNX5vDKK6+IqaT77rtvRfYVV1xBEydOrHzGGxDoSmD8+PF09dVXd72NzzYTKH9PbRYLcSBgKwH4qYmzzAH9qq3uFRhh6FflVHX5eyqnNCLfB4WyQDpRjmxncMKGVmXuvPPONH/+/IqYrbbaivgg5vL16aef0jbbbFP+iFcQWIfAFltsQcuWLVvnPm7YSwDtlb08Ic0ZAvBTIvSrzvhWkKSiX5VT27LbKwSFcuq1qVJkO0NTSjqY6fDDD6d0Ot1rCeeccw6NGTOm13RIEDwCo0ePFjvYBs9y+RYHvb2ST9xaiYsWLaIJEyZYy+TD1EH3U/SrPnRqySahX5UHXHZ75eugkDfY4I7Qq5dsZ1CJk5VA74svvqBddtlFJfWhiyIEfvrTn9KKFSsU0cbfagS5vfJCzS5YsIB+9rOfeUFVR3UMsp+iX3XUtQIjHP2qvKqW3V75OihMJBJ08skny6s9m0uS7Qw2q9+0uNtvv51GjBhhKf9dd91Fw4YNs5QHif1N4PTTT6d7773X30YqZF1Q2yuFqqBHVVavXk0bbbRRj2mC8DCofop+NQje7byN6FedZ1xbguz2ytdBIe86yruPevWS7QwqcOJNgf7nf/6nKVWOOuooeuyxx5rKi0z+IjB58mQ67rjj/GWU4tYEsb1SvErWUW/s2LG0atWqde4H6UYQ/RT9apA83Dlb0a86x7aeZNntla+DwtNOO41effXVeqyVvy/bGdwGUt4iuxU9+vXrR8uXL29FBPJ6nABPJ9588809boX31A9ae+W9GoLGTCBofop+FX5vBwH0q3ZQtC5Ddnvl66DQOn61csh2Brett8PefD5PnjjQ3m3YPi5/zz33FIcz+9hEJU2z4/urpGFQylcEguandtiLftVXX4GmjEG/2hS2ljPZ8f21ogSCQiu0JKeV7QySzetUXNctsjs9tPhB13XaddddLeZCcj8QsNOP/MBDpg1Baq9kcrWzrIcffpj4XLogX0HyUzvbQ/Srwf3W2OlHwaXYnOWy2yvfBoU81D19+vTmakGRXLKdwS2zG90i24p+s2bNIv5lC1dwCOyxxx709ttvB8dgxSwNSnulGHZL6lx77bV02WWXWcrjt8RB8VP0q37zXHfsQb/qDvdyqbLbK98GhfF4nM4888wyV0++ynYGNyBZ2SLbqn68tnCHHXbAkQRWwXksfbFYpO22246+/vprj2nuL3WD0F55vcbGjRtHp556qtfNaEn/IPgp+tWWXASZiQj9qhpuILu98m1QyEca8BbMXr5kO4NsVs1skW1VRz6nsm/fvvT6669bzYr0HiDAU+E222wz+uCDDzygrb9V9Ht75YfaW7JkCfFOlEG+/O6n6FeD7N322I5+1R6OdkiR3V75NigcPXo0vffee3bUiWsyZDuDTENb2SK7GT0HDRpEEyZMaCYr8ihKYPz48XTQQQcpql3w1PJzexW82vSvxX72U/Sr/vVbWZahX5VFurFyZLdXvg0KG8OtdirZziCLhh1bZDej6+WXX06HHHIILVu2rJnsyKMIgc8++4wGDx5MV155pSIaQQ0m4Nf2CrXrLwJ+9VP0q/7yU9nWoF+VTbyx8mS3VwgKG6sXV1LJdgZZRrpp1wsvvEBbbLEF8ZpTXN4jwIdvb7311pTJZLynvM81dvN77XO0tpo3bNgwW+V5TZhf/dRNu9Cveu1b0Flf9Kudeaj0Sfb32pdBYaFQoPvuu0+lem1KF9nO0JSSFjOpsrUxb0J0+umnUy6Xs2gBkrtBYObMmXTaaafR8OHD3SgeZTZAwI/tVQNmey7JVlttRUuXLvWc3nYp7Ec/Rb9ql3cESw76VfXrW3Z75cugcNKkSTR06FD1a7sXDWU7Qy/qtPzYiS2yW1Hq5ZdfFsdW/PnPf6ZPPvmkFVHI6xCBjz/+WHyXBw4cGPjz1RxCbJtYv7VXtoFRTNBuu+1G7777rmJayVPHb36KflWe7/ilJPSr3qlJ2e2VL4NCXmt01VVXeafW62gq2xnqqGHLbSe3yG5VwYkTJ9KPf/xjuuiii2jVqlWtikN+GwisXLmSLrjgAnHUBP/Ig0t9An5qr9Sn3byGU6ZMCfRuvX7yU/SrzX8PgpgT/ar3al12e+XLoDCdTtPcuXO9V/tdNJbtDF2Kt+2jjC2y7VD2pptuoo033pjOOussyufzdoiEDIsEFi5cSLzm6Uc/+hHdcsstFnMjuZsE/NJeuckQZTtPwC9+in7VeV/xSwnoV71bk7LbK18Ghd6t/s6ay3aGzqXb80n2Ftl2aH3nnXfSTjvtRMceeyzNmDHDDpGQ0QuBadOm0dFHH00DBgygu+66q5fUeKwiAT+0VypyhU72EvCDn6Jftdcn/CoN/ar3a1Z2e4WgUGGfke0MdqOYP38+8QJ4r16PPPKIOAdv7733pjFjxtDy5cu9aoqSen/55ZfEv3bvtddedOCBB9Kjjz6qpJ5QqjECXm+vGrPS+6leeukleu6557xvSJMWeN1P0a82WfEByYZ+1V8VLbu98l1Q+PXXX9O5557rC6+Q7Qx2Q/O6/mUeb775JvHajX79+onRrCeeeKL8CK9NEHj88cfpyCOPFFNER4wYQbNmzWpCCrKoRsAv33fVuNqtDx/Hw7svB/Xyup96Xf+y36FfLZOw5xX9qj0cVZMi+/vuu6Bw+vTptN9++6lWr03pI9sZmlKyTiZVtsiuo17Tt3k0a8iQIfS73/2O/vKXv9DDDz9MhmE0LS8IGXnznn/961/Eu7wyt0gkQqlUKgimB8pGL7dXQaoongHBU+ODennZT9GvBtVr17Ub/eq6TPx4R3Z75bug0C/HUbBzy3YGu75Qqm2RbZddtXK++uormjBhAh1//PHUp08fOvTQQ8UU0wULFtQmC+z7efPmiamhHATy5j1/+tOfiHd5xRRc/7qEV9sr/9ZI95ZxG8WjhUG9vOqn6FeD6rFVu9GvVlkE5Z3s9sp3QeGcOXNo9uzZvvAX2c5gBzSVt8i2w756MniNDtvOa+P4eIvjjjtOBIl+8cV6dpfv53I5EQTyCMQ222xDv/3tb4mnhj7//PPlJHj1OQEvtlc+rxKY1w0BL/op+lX0q+hXu/kyB+CW7PbKd0Ghn3xEtjO0ys4rW2S3amdv+T/55BOaPHmyCBJDoZBYi3jyySdTLBYjHsn2+sHR77zzDj300EP0j3/8g0455RTq27cv7bnnniII5Klpn376aW+I8NyHBLzWXvmwCmBSAwS85qfoV81KRb+KfrWBr7fvkshurxAUKuxCsp2hFRRe3CK7FXut5OUpkzySOGrUKBo6dCjttttutP7669PAgQPp4osvphtuuIGSySTx9tGqBFTcAWezWRHEsn4c0LK+6623Hu2+++504okn0o033ihGAlesWGEFB9L6lICX2iufVkFDZq1du5auuOKKhtL6MZGX/BT9an0PRL9anw2e+IeA7PbKd0Eh7zz6+eef+8IjZDtDs9C8vkV2s3a3ku+bb76lkkx4AAAgAElEQVShmTNninV2l1xyCZ1wwgm0//77i6mXvAaPA0c+xP2kk06i8847j6677jq6++67iUfiMpkM8TRpXdeJD6X96KOPaOnSpWK93po1a4Ra/MqdJt/n55yO07/99tsiP8theSyXvzNcDpfH5XL5PAX2gAMOEEEs68cjg6zvt99+24rZyOtjAl5pr3xcBQ2bxj9KcRsUxMsrfop+1bp3ol+1zgw51CYgu73yXVAoG6CT7uQVW7yip5N1Zads3lWMp5g+++yz9OCDD9Lo0aNp5MiR9Pe//13sGjh48GDxuuuuu4rD3rfffnvaaqutxDTVDTfckHbaaSfiVz5Cg+/zcz4UntPzxjjl/CyP5XZ0dIhyeDSTy+XycYGAVQJoB6wScy/91ltvTZ999pl7CrhYslf81Ct6uliVlopGv2oJFxIrQkB2O+CroDCfz4s/iBWpy5bVkO0MzSjs1y2ym2GhSh4v+I0qrKCHfQTgd/axdFoST1fnQ66DeHnBT9GvqueZXvAb9ahBo1YJyPY7XwWFvA6KRzv8csl2BqvcgrBFtlUmKqRX3W9UYAQd7CcAv7OfKSTaT0B1P0W/an+d2yFRdb+xw0bIUI+AbL/zVVCoXnW2ppFsZ7CibVC3yLbCyK20V111lVtFo9wAE1C5vQpwtcD0LgRU9lP0q10qS6GP6FcVqowAqSK7vUJQqLBzyXaGRlFgi+xGSSEdCASHgKrtVXBqoHFL77jjDpo+fXrjGXyUUlU/Rb/qIyeDKSBgEwHZ7ZWvgsIJEybQSy+9ZFNVuC9GtjM0YjG2yG6EEtKAQPAIqNheBa8WGrP41FNPpXHjxjWW2GepVPRT9Ks+czKYAwI2EZDdXvkqKPzDH/5ATz31lE1V4b4Y2c7Qm8XYIrs3Qmo8xzQXNeohaFqo1l4Fjb8Ve/kYGt51OIiXan6KftUbXoh+1Rv15DctZbdXvgoKQ6EQzZ492zc+IdsZegOnmj696RvU56inoNa8u3bD79zlb6V0Pnrmvffes5LFN2lV81PV9PFNRdtsCOrJZqAQ1xAB2X7nq6DwzjvvJMMwGgLthUSynaEnJtgiuyc6aj1TyW/UIgNtnCQAv3OSLmTbRUAlP0W/aletOi9HJb9x3lqUoAoB2X7nq6BQlUq0Sw/ZzlBPb2yRXY+MmvcxzUXNevG7Vqq0V37nDPtaI6CKn6Jfba0eZedGvyqbOMpjArLbKwSFCvudbGfoDgW2yO6OCu6BAAh0JaBCe9VVJ3zunsCrr75Kt912W/cPfX5XBT9Fv+pzJ4N5IGATAdntlW+CwsWLF9ODDz5oUzWoIUa2M3S1GltkdyWCzyAAAvUIuN1e1dML99cl8MQTT9CQIUPWfRCAO277KfrVADgZTAQBmwjIbq98ExROmjSJhg4dalM1qCFGtjPUWo0tsmtpeOs9prl4q778oq2b7ZVfGMqy44UXXqBDDjlEVnFKleOmn6JfVcoVLCmDftUSLiS2iYDs9so3QeGtt95K559/vk3VoIYY2c5QthpbZJdJePPVLb/xJi1obRcB+J1dJJ2Xs2zZMnr22WedL0jBEtzyU/SrCjqDBZXc8hsLKiKpDwnI9jvfBIXcwb322mu+cgnZzlCG51a55fLx2hoB1F9r/JC7OQLwu+a4IZdcAm75qVvlyqXr39JQf/6tW5Utk+13vgkKVa7UZnWT7QysJ7bIbra21MmHaS7q1EWQNHGjvQoSX9hqDwE3/BT9qj1156YU9Ktu0g9u2bLbKwSFCvuabGfAFtkKOwNUAwHFCchurxTHobR6xWKReAfMIF6y/RT9ahC9DDaDgD0EZLdXvgkKr732Wvroo4/sqQVFpMh0BmyRrUilQw0Q8CgBme2VRxEpo/YXX3xBm2++uTL6yFREpp+iX5VZsygLBPxHQGZ7xfR8ExRuu+22VCgUfOURspxhzJgxgf3V2FcOUzIG01z8WKvq2ySrvVKfhPoaGoZBffr0UV9RBzSU5afoVx2oPBdFol91EX6Ai5bVXpUR+yYo/MEPfkDfffdd2S5fvMpwBmyR7QtX6WSEDL/pVCA+gAD/wqj5pjsJRH3eeeedgbCzq5Ey/BT9alfq3v8sw2+8TwkW2E1Att/5ohdfs2YNPfnkk3bXhevynHYGbJHtehU7ooDTfuOI0hDqeQLwO89XYSAMcNpP0a/6042c9ht/UoNVrRKQ7Xe+CApbha5qfqedwWn5qnKFXiAAAvYTQHtiP1NItJ+A037qtHz7iUAiCICAqgRktycIClX1BIenY2GLbIUrHqqBgAcJyO68PIhIKZVHjRpFK1asUEonGco46afoV2XUIMoAgeAQcLK96o6iL4LCl19+ma655pru7PP0PaecAVtkq+UWhh4nTYuTYVEtQ0+QFkpYyKdTWAuTbrUgi3oheTAJONVeBZOm81b379+fFi9e7HxBipXglJ+iX1WrotGvqlUf0KY5Ak61V/W08UVQeNddd9GwYcPq2ejZ+044A7bIVtAdjALldOs754qgULMeFOYQFCroBN5XyYn2yvtU1LXg5z//Oc2bN09dBR3SzAk/Rb/qUGW1Ihb9aiv0kFcRAk60Vz2Z5ougkEcJL7/88p7s9OQzu50BW2Qr6gaFNEXbM0T0/9n7EmhHqmrtUhka7JZ5FgTlAQLLAI0CD37tp2gQF6QZZRAvLEFopoCKARFBBAIIBFAIAs8gNB2ZDPDEQKMGxUcQmk7LVAg8wtSEqQl0AyWi7H/tU6kkNzeVoYZTp6q+Wqv7JlXn7LP3t/c93911JoPKmQmayGYoqWmkaQkqVFvJYrNGmQTf00hLZqjWIOokhQaV0hNUqreyvUaZUumSOYLYqFFa1EtQOpsmTUuRmRQaVMlPmPK0ZKedRrVVntvJUq2pKGZQSzkEvO6vlDMwYgr993//N7322msRs2q4OV7HKXh1OOaBlACvBgI7GvUWAa/7q2HaRSIpfPbZZyN3RiE7zstgwBbZw34VgnvendwVk5z45UhvGqQXOWnLUZMalNE0SuarZFCTyhlO2EqTksJCQqN8awjQnDbDI4gNSmsapQpVahoNKmcTIink6aO1fJK0ZIEaBlFTL4lYKzUMKiY0ShV1AUY1lyAtzckqLiAwHAEv+6vhraEEEHCGgJdxCl515gMZtcCrMlBGG34j4GV/NYqukUgKRzE0jGW8CgZska229yeRFyd31qI/o0YJLUG1J4qk8VrAthlNqtebU5PCVr22vEbFTAKtekZVyKkZZvKXyBapUi5TpVKkhKZRutKgCiecWoKyhRLV9PoY6xWtRvAzrgh41V/FFT/YLQcBr+IUvCrHX05bafMgmXwHXnWKJOoFiYBX/dWoNiApHBWpAMp5FQxeyQkAglg02U1eYsTPSgrJ3BjGTApTXUmhQc2mYZsUUr1AmlagptjAJk3t1YoiyUySSAqTGiWzRSqXS1Qql6lUKlJVTD81qK5XqJBLi0RRS5Vi4QMY6R4B9DPuMZQp4YILLqCnn35aZpNKtOVVnHolRwlQIqgEeDWCTo2hSbL7mUgkhRMTE7Ro0aLIhYsXwYAtstUPi6HkZXByqFGhtcCvmuszfbQ10sfWVrL8vEiGUZtUTy+Zawo55yylNErkayY4hk4TmkbFepNy/NMacaxmHO2Kqj7i0NAPBLzor/zQCzL7IzBr1iyqVOI3PdyLOAWv9o8ple6CV1XyBnRxioAX/dU4bUciKfz0pz9Njz/++Dh2h6Ks22DAFtmhcLM54pcoktGa5lKYNFKYEkdINCp8bEVroxktRRVro5nWkRT1crb9PDmRokSK5RE1Krn2fbP+hDni2KyJ9YaWzFS+KsCqlzkRtNrRKFvuTFoNB5rQMigEOG5whQeBXXfdle6+++7wKOyRpm7jFLzqkSN8FiOSQvCqzyhDvN8IuO2vxtUvEiy+zjrr0Msvvzyu7cqXdxMM2CJbefc6UNAgwxhwnoTBz/uINczppn2eULPZnFpHlG9Ss5+sfkJwDwh4vDEWAPUfgT/+8Y/00ksv+d+QYi2AVxVzSODqgFcDdwEUsEXATX9lK3TAg0gkhY899hh98MEHA8wM5yOnwYAtssPpb2gNBMKMgNP+Ksw2Q/fwIeA0TsGr4fM1NAYCYUfAaX/l1O5IJIVOjVe9npNgwBbZqnsV+gGBaCLgpL+KJhKwSmUEnMQpeFVlj0I3IBBdBJz0V27QQFLoBj2f644bDNgi22eHQDwQAAK2CIzbX9kKwgMpCJx//vn0wAMPSGlLpUbGjVPwqkregy5AIF4IjNtfuUUn9EnhM888Q3vssYdbHJSsP24wjFteSaOhFBAAAqFEAP1PuNy211570W9+85twKe2BtuPG6bjlPVARIoAAEAACAgHZ/U/ok8L777+fdthhh0iGzzjBgC2yIxkCjow644wzHNVDJSDgBoFx+is37aCuNwjsvffedMstt3gjLERSxolT8GqIHOuzquBVnwGG+L4IjNNf9RUw5s3QJ4Xz58+nL3/5y2OaHY7iowbDV7/6VeI1D7iAACMwatwALSDgJQKIOy/R9F8WTx1dvHix/w0p1sKocQpeVcxxAaszatwErCaajxgCsuMu9EnhG2+8Qf/3f/8XsTAwzRklGHD0RCRd78qoUeLGVQOoDAT6IIC46wMKbimHwChxCl5Vzm2BKzRK3ASuJBSIHAKy4y70SWHkIqDLoGHBgC2yu8DCxzYCmObShgIfJCIwrL+SqAqaAgK2CAyLU/CqLXSxfgBejbX7AzN+WH/ltWJICr1G1EN5g4IBW2R7CDREAQEg4BqBQf2Va+EQ4DkCF1xwAf3lL3/xXK7qAgfFKXhVde9BPyAQLwQG9Vd+IBH6pHDu3Ll09dVX+4FN4DLtggFbZAfuGigABIBADwJ2/VVPMXxVBIH999+fbrjhBkW0kaeGXZyCV+X5AC0BASAwGgJ2/dVotccvFfqk8JRTTqFzzjlnfMtDUMMuGOzuh8AkqCgBAUxzkQAympiCAPqlKZAofWO//fajG2+8UWkd/VDOLk7t7vuhA2SGDwHwavh8FgWNZfdLoU8Ko7wgvF8wYIvsKPya+2tDv7jxt0VIBwLY9TZsMVCtVunFF18Mm9qu9e3XP4JXXcMaeQH94ibyRsPAwBGQHXehTwr/9re/0QsvvBC44/xQoDcYsEW2HyhHT2Zv3ETPQlikIgKIOxW9Ap16EeiNU/BqL0L43g+B3rjpVwb3gIDXCMiOu9AnhV47QCV53cEQ5RFRlTCPgi6Y5hIFL4bPhu7+KnzaQ+O4INAdp+DVuHjdvZ3gVfcYQsL4CHT3V+PXHr8GksLxMZNWwwoGbJEtDXI0BASAgEMErP7KYXVUk4xALpejhx56SHKrwTdnxSl4NXhfQAMgAAQGI2D1V4NLefc09EnheeedR48//rh3iCgkiYMBW2Qr5BCoAgSAgC0CssnLVhE8GAmBPfbYg26//faRykapEHg1St6ELUAg2gjI5tXQJ4U77bQT3XfffZGMCg4GXgCPCwiMgwCmuYyDFsp6hYBs8vJK77jK2X333emOO+6Infng1di53BODwauewAghYyIgm1dDnxRus802VKvVxoQ5HMVlB0M4UIGWwxBA3AxDCM/9QABx5weq/snkhDCqm7QNQg1xOggdPLNDAHFjhwzu+4mA7LgLfVJ45ZVX0pIlS/z0SSCyeYRQdjAEYiga9RwBxI3nkELgCAgg7kYACUUCRQC8Gij8oW4c/Vuo3Rda5WXHXeiTwtB6eoDi1hbZsoNhgEp4FCIEMM0lRM6KkKroryLkzAiaAl6NoFMlmgRelQg2mmojIJtXkRS2oVfjQ/cW2bKDQQ0EoAUQAAJhRAD9Vbi8xrNsnnvuuXAp7VBb8KpD4FANCACBQBGQzauhTwq5s3/33XcDdZpXjfdukS07GLyyA3KAABCIHwLor8Ll8x122IHuv//+cCntQFvwqgPQUAUIAAElEJDNq6FPCqdNm0aGYSjhPDdK9Dt6QnYwuNEfddVBANNc1PFFnDRBfxUub8+cOZMWLFgQLqXH1Ba8OiZgKG6LAHjVFho88BEB2bwa+qTwQx/6EH3wwQc+usR/0U899VTfoydkB4P/lqIFGQggbmSgjDZ6EUDc9SKi9vdf/vKX9Morr6itpAvtwKsuwEPVKQigf5sCCW5IQEB23IU6KeRk8LbbbpPgFn+bsHO63X1/tYH0sCOAuAm7B8OpP+IunH6LqtZ28Wh3P6o4wC5vEEDceIMjpIyHgOy4C3VSOB60apbmLbL5jWa/S3Yw9NMB98KHAKa5hM9nUdAY/VUUvBgNG8Cr0fCjSlaAV1XyRnx0kc2rSAoDjC1ri2w7FWQHg50euA8EgAAQGIYA+qthCKn1/OSTT6Zms6mWUh5oA171AESIAAJAQAkEZPNqqJPCN998k2bPnq2E48ZVonuLbLu6soPBTg/cBwJAAAgMQwD91TCE1Hq+5ppr0muvvaaWUi61Aa+6BBDVgQAQUAoB2bwa6qRw8eLFtP766yvlwFGU6d0i266O7GCw0wP31UVg/vz5dP31109SsHeay7x58+iuu+6aVAZfgIDXCKC/8hpRf+XNmDGDli5d6m8jEqWDVyWCHfGmwKsRd3CIzJPNq6FOCuv1Om288cYhci9Rvy2y7QyQHQx2euC+2gisuuqqk6aBdccNj6avssoqahsA7SKBQHfcRcKgiBvBL4v+/e9/R8JK8Gok3KiUEeBVpdwRW2Vk82qok8J//OMf9Mgjj4QmWOy2yLYzQHYw2OmB+2ojcPHFF1M6nW4r2R03J5xwAuVyufYzfAACfiHQHXd+tQG5QKAXAfBqLyL47gUC4FUvUIQMtwjI5tVQJ4VuwZZdf1znjltetj1oTx0Eut9qWtNHMUqojn/ioAn6qzh4WT0bx427ccurZzE0koUAeFUW0mjHDgHZ/RWSQjtPeHx/0BbZdk3JDgY7PXBffQR632qyxhglVN9vUdIQ/VV4vGkYBh1yyCHhUdhGU/CqDTC47QkC4FVPYIQQFwjI5tVQJ4VPPvkk7bHHHi7gllN12BbZdlrIDgY7PXA/HAh0v9XEKGE4fBYlLdFfhcebL7/8Mq2zzjrhUbiPpuDVPqDglucIgFc9hxQCx0BANq+GOilctGgRJRKJMeCVX3SULbLttJIdDHZ64H44ELDeavL0UYwShsNnUdIS/VV4vBnGTdq60QWvdqOBz34iAF71E13IHoaAbF4NdVL40EMP0XbbbTcM08Cej7pFtp2CsoPBTg/cDw8C/FaT4wY7jobHZ1HRFP1VeDy5bNkyuueee8KjcJem4NUuMPBRCgLgVSkwo5E+CMjm1VAnhbz76AsvvNAHxuBvjbNFtp22soPBTg/cDw8C/FbzP/7jP7DjaHhcFhlN0V9FxpXKGgJeVdY1kVYMvBpp9yptnGxeDXVSqKonx90i284O2cFgpwfuhweBf/7zn3TMMcfQe++9Fx6loWkkEEB/FQk3KmsEeFVZ10ReMfBq5F2srIGyeRVJoQ+h4JUTvZLjg4kQ6SMCS5cupb/97W9ULpfpl7/8JZ1//vmUyWToW9/6Fs2ePZt22WUX2meffYh33ttoo41o3XXXpdVXX52mT59OK6ywAs2aNUv85O98n59zOS6/7777ivosh+Wx3J/+9KeiHW6P2+X2cQGBcRFAfzUuYsGVX7hwIZ122mnBKeCgZa/iyys5DkxAlQARAK8GCD6adoyA7P4q1EkhbzTDf+SqdDnZIttOf9nBYKcH7nuPAG8Jf//999OvfvUrOumkk0Qcz5w5UyRxM2bMoM985jN07LHH0mGHHSaen3vuuXT11VdTqVSie++9l3RdJ35z/txzz1Gj0aAlS5YQrxOyRgj5J3/n+/ycy3F5rsf1WQ7LY7nf+973RDvcHrfL7a+xxhq0/fbb03777SfaZz1ZX56yjQsI9EMA/VU/VNS8x7///GIoLBd4NSyeClZP8Gqw+KN17xGQzauhTgr5j9QddtjBey84lOh0i2y75mQHg50euO8OgTfeeIPuvPNOOuuss0SStdlmm9G0adNE7J566qliJPCmm26iBQsWiCTOXWve1H799dfpwQcfpBtvvFHo94Mf/EDou+KKK9Lmm29O+++/P5199tnCrmaz6U2jkBJqBNBfhcd9c+fOpYMPPjgUCoNXQ+Em6UqCV6VDjgYDQEA2ryIp9MjJbrbItlNBdjDY6YH74yHw4osv0rx582jOnDm01VZb0WqrrSamanICyEnW3//+9/EEKlb6iSeeoBtuuIE4UTz88MOJd2bbeuut6eijj6ZisUiLFy9WTGOoIwMB9FcyUPamjWeffZZqtZo3wnyUAl71EdyQiQavgldDFrKeqCubV0OdFKqy+6jbLbLtIkd2MNjpgfvDEeD1eJwE7rTTTrTBBhvQgQceSJdffjk9+uijwytHoMQjjzxCl112GR1wwAG0/vrr08477yySRB4hxRUPBNBfxcPPsqwEr8pCWt12wKvgVXWjU45msnk11EmhHJcMbsWLLbLtWpAdDHZ64P5UBHitXqFQoL333puWW2452m233UQSyG/gcRHx4dicJCaTSVp++eXFxjjXXHMN8ZQfXNFEAP1VNP0ahFXg1SBQD75N8OpgH4BXB+MTxaeyeRVJoYso8mqLbDsVZAeDnR6430GAp03uvvvu9JWvfIUOPfRQuuWWW+j999/vFMCnKQjwdt4333wzTUxMCNy+9rWvEa+hxBUtBNBfhcef1113Hd12221KKgxeVdItvioFXh0fXvDq+JiFsYZsXg11Uvjwww/TQQcdFJif/XaW3/IDAy5kDf/1r38VU0NXWmklscHKHXfcETIL1FL3t7/9rdht9aMf/aiYYvrAAw+opSC0cYQA+itHsAVSidf/8ki+ipffceS3fBUxVVEn8Kq3XgGveounKtJk91ehTgp5d0TeNj+Iy8stsu30lx0MdnrE9T5vmsK7237uc58TU0PffffduELhi91vv/22+MP0s5/9LO24445i8xpfGoJQKQigv5ICsyeNfPOb3xTH4XgizEMh4FUPwVRUFHjVX8eAV/3FV7Z02bwa6qSQD+DddtttZfuIvN4i284A2cFgp0fc7l988cX08Y9/XGyawjGGy38E+DgOPuZiww03JN5gAlf4EEB/FR6fVSoVcXapShqDV1Xyhve6gFe9x3SYRPDqMITUfy6bV0OdFPLIzWOPPSbVq35skW1ngOxgsNMjLvfPOeccsSlKOp2mF154IS5mK2Xn888/T/w7tvLKK9O5556rlG5QZjAC6K8G44On9giAV+2xCfsT8GrwHgSvBu8DpxrI5tVQJ4VOQXZaz68tsu30kR0MdnpE/T7virnGGmvQKaecQrx4G1fwCLz33nuUyWRorbXWomuvvTZ4haDBUATQXw2FCAX6IABe7QNKBG6BV9VzInhVPZ8M00g2ryIpHOaR1nM+L4ePHZB5yQ4Gmbap0NYf//hHceg674r5+uuvq6ASdOhB4NVXX6VDDjmEEokE3XPPPT1P8VUlBNBfqeSNwbqceeaZxL9bQV/g1aA94H374FXvMfVaInjVa0T9kyebV0OdFPIUv8MOO8w/b7Qk+71Ftp0BsoPBTo8o3j/88MPpqKOOIj50HZf6CCxatIi+/e1vi3/qaxtPDdFfhcfv6623Hr300kuBKgxeDRR+XxoHr/oCq29Cwau+QeuZYNm8Guqk8Omnn6ZPfepTnoFvJ0i2Uyw9gmrXaj+KP++66y762Mc+RldddVUUzYu8Tb/4xS9otdVWo7vvvjvytobNQPRX4fHYjBkzaOnSpYEqHFS8BNVuoGD73Dh41WeAfRYPXvUZYBfiZfdXyiaFfHZZPp8n3rHqiiuuID5+ovd69tln6ROf+ETvbU+/y9gi205h2cFgp0dU7p966qni8PS33norKibF0o433niDdt11VzrttNNiab+qRqO/UtUzHb0sXuWlEHa82int3yfwqn/YypYMXpWNuD/tgVf9wdWtVNm8qlxSeMstt9Cee+4pzi3j6X25XI6OPPJIcR5hKpWiW2+9tY2xYRjk50HisrbIbhvU80F2MPQ0H6mvfBbevHnzImVT3I2ZO3eu6CfijoMq9qO/UsUTU/UYh1en1vb2DnjVWzyDlAZeDRJ9f9oGr/qDq1OpsnlVqaTw/PPPJz4O4MUXX+yLH2+re/zxx9NFF13U97mXN2VukW2nt+xgsNMjzPd5ivG0adOI35Djih4C1WqVpk+fTvV6PXrGhcwi9FdqOgy8OtkviNPJeDj5Bl51glp46oBX1fGV7P5KmaSQievYY48dyRNz5syhCy+8cKSyTgrJ3iLbTkfZwWCnR1jv8zTRjTbaiHhEGVd0EVi2bBltsMEGxD9xBYcA+qvgsLdrGbw6FRnE6VRMxrkDXh0HrfCWBa+q4TvZ/ZUSSSFPbeERwHEuTiC53ne+851xqg0tG8QW2XZKyQ4GOz3CeJ9HBmfOnBlG1aGzQwS22WYbWrhwocPaqOYWAfRXbhH0tr5TXr399tu9VYSIwKueQxqIQPBqILAH2ih4NVD4STavKpEU8hpCuymjdu7gTWZ4jeHyyy9vV2Ts+0FtkW2nqOxgsNMjbPf5mImtt946bGpDXw8Q2GKLLUjXdQ8kQcS4CKC/Ghcxf8s75dW99trLU8XAq57CGZgw8Gpg0AfeMHg1OBfI5tXAk0J+87TTTjs5Qnz77bcXm9A4qtynkmzw+6gw6ZZq+kxSTtEvTz75pON4UtQkqDUmArz5wTPPPDNmLRR3iwD6K7cIelffLa96OeKuWlyopo93XvdPEnjVP2zDIhm8GoynZPdXgSeFfOwE7zLq5DriiCPoyiuvdFJ1Sp0gt8ieokzrhuxgsNMjTPdXXnlleuedd8KkMnT1GAFe88JnUeKSiwD6K7l4D2oNvGqPDuLUHhu7J+BVO2Tic/lvoXEAACAASURBVB+8GoyvZfdXgSeFfA4hHzvh5HJTt7u9oLfI7tal+7PsYOhuO4yfe48sCaMN0NkbBG6++WbaZ599vBEGKSMhgP5qJJikFHLDjW7qdhsHXu1GI7yfwavh9Z3XmoNXvUZ0uDzZvBp4UsgH6PI5hE4uL0YKVTh6ws522cFgp0cY7v/sZz8beffaMNgDHd0jwDMQeMQElxwE0F/JwXmUVsCr9ighTu2x6X2iDK82KmLDjUKtZyfxRlncL+r3U0JLUO/jXnvw3T0C4FX3GI4jQXZ/FXhS+OCDD4qD6ccBySrLuyLVajXr69g/VTl6wk5x2cFgp4fq95csWUI8/RcXEOhFYJNNNiGe9oLLfwTQX/mP8agtgFftkUKc2mPT/UQtXm1SPqGRlql0q0h6MUWalqY6NalWqVFz0lN88QsB8KpfyE6VK7u/CjwpZAh4egIfTD/OxYdVu9klTaUtsu3slh0Mdnqofv/oo4+myy67THU1oV8ACFxyySVjH3cTgJqRaBL9lVpuBK/29wfitD8uvXdV49VGKU2aNkGdvaWblNM0SuR4YKBB+Uye6i0jjHqF0klNjCIm0wXSDaJmrUjJiWIrcWxQYSJJ2XKrRqNMqVSOGr0gUIOKmaSQo2lJKlSsFvg+J6TcRoLyFUurOmVSmS4du743yjSRKVK5mCFNS5He1Ck/0ZFdrHVar1cKlGzJTucr1DM+OkVL2TfAq/IQl91fKZEU3nrrrWP/4XbMMcfQ//zP/zjyjGpbZNsZITsY7PRQ+X6j0aB1111XZRWhW8AIrLnmmvTaa68FrEX0m0d/pZaPwav9/YE47Y9L910lebVZpYSmUb7WGg+0po6KPE3vTB9tlUvmyqTrNcpycpjIU7NVvsLVm+Z0VC1VFGbXecQxWexJvgwqpjjpS1NVr1OlMCESwJphUGmidb/eoFo5K5LDXJUFd+khJHe+G3qxlUSmqFCq0v9kNNJSBdIbDaoWWbYmpr82qzlTXrlGeq0kkkMz8e32UPCfwatyfCC7v1IiKWRoL7roIpozZ85IKPMaRJ766fSSDXLU9XRqnxf1fvjDH9LcuXO9EAUZEUXgmmuuodNPPz2i1qljVlj6VXUQ818T8OpUjBGnUzHpvaMmrxpU4iStNYXUnDqaa4386ZTUkiKpmnyfBxHNdYeVRoOymka5mkFW4sUJH4/PsdyJUmekTuBh1ERCVuRhRnE1qZhOU6VeE8lp0Ro0JKJaPkFmgtnRw6zT+W4mhQmqCnGthHOiQHqTbxik12rUMAwqchKbrbbaJGpUeGQx02cUs10kkA/gVTmwy+6vlEkKGd4LL7yQeASQD6bvd/GUUX7uJiFU8eiJfrbyPdnBYKeHyvfXW289eumll1RWEboFjABPTd9www0D1iL6zaO/UtPH4NXJfkGcTsaj3zdVebVZ5VG5CbGGMK9plCpa0zY7yZfeGnVjP3f/K+gGVbMaJfJVqmSTlC5WRJJY1GuU1jQq9+aEesGc5tkDkNHnvkhEEwVO7drJqVmt891MCpNiKis/M+plmujSMZ0vU5Os0cnJuovpplZu2qNPUF/Bq3KQl91fKZUUMsS33367WCvIB2Xy7qK77bab+MmbyvAawt/+9reOPaHqFtl2BskOBjs9VL3PBzRznOACAsMQ2HbbbcnLA7mHtRfH5+iv1PU6eLXjG8RpB4t+n9TmVZ1SmkaZvDllU0wFFUZ0ki+9kCQtURAjiIYYhGtQtbUJjVHLtxLFBFWanCQmSOMNbLTs1E1qWiOMYlaoaMOgcj5P1b/xyOPknU6tkUIzKex6JqapmiOYvUlhs87b4xAZTZ6CygmoRnm9ScWERomCuYGiqb5OlWrXsGQ/pwV0D7zqP/Cy+yvlkkILYv4Djg+mZ0D4p5tdRlnm8ccfT7w4NkyX7GBQDZv58+cPVOnHP/4xnXfeeQPL2D1sVJhUUlO2sDanaqRo0SImj3zPGgM7adG4L952pnrXVYxqG09/0ZXF66yzziL+h8s/BOLeX/mHrHeSwauYgeMnr3oXqfaSKpzI8QjbJK7qJIXNGq/JS1BJN9ce1jhJ1FLmJjRGTSSV1rTRpvg7wNqsprfNBmV4I5usudFLvVW22px832hUxHTSTKVBZLAeGk2IEcxma01iSowOWkmheWyGQTzSaSV/XI9HDfO6QbUc25chU/0GFXg6adJc+9irYdDfwav+e0A2ryqbFFpQewGI6kdPWLb2/vTC9l6ZYfr+sY99jFZccUXKZrN91d5jjz3EyHLfh8NuttYLiI68XbY1n3+izHM7qKro27m2uh5/0IvmG1Zns1R0QdTWZB6PVXMtrlQq0ezZs13LgQB7BOLeX9kjo94TL3wFXlXPr6No5CuvjqKAyzJmcqVRlpOw9tVJCvlWJW/tDMqjgAkqthJEXrsnNo9Jt462aJoJXd7mgEOe4mnuAmpO58yUTIYz9JJIBPn3iP8ls+X2C9FakXdJNe8nkpzgdSeFqfbOpI2qNWppluVNZ0yLGpQXG9y07icy7SmnbXMV+QBe9d8RXvTV42gZ+aQwDEdP2DlMdjDY6RHUfV7IvPLKK4vEcNq0aVOSw5kzZ9KCBQscq1fmHcRau48JIa1dy3K8u1mjQplcZyvofltES9niul6iVLrUJhzq+t4o5yhTKFMxkzB3TjPcbXFtJoWtkUKjToU0v2HVKJFMU6W92J6oUS22iZK3+64bDcq1tv/WBIF1bcMtgO363rstt8H599Ttw0W1AfaM63S1p0SNa42a5ePeX6nplf5aufUVeLU/rmG46zevKoOB0aRm0xwtdKeTIeRMfVnK9xvUFBvF9LRgNMkQc1d77k/5asruJ8Nosv5TW50iIsAb4FX/wXfbV4+rYaSTwrAcPWHnNNnBYKdHkPd522PGgf/xqKGVHP7zn/8kt4vhzWkm5nx/trFR7pyDZOj8Fo8XjlN7p7Jc7xbR1q5mzDs+bXFtLmo39WAdu7+bu6xxYpulUrVOFZdbXHeSQvP8Jy2Zo1pdp1KWk8ME8doK6y1tulilul4xF8rn7ie9UhBbghcqNbHYPjFpzYX9ttxNu+3D+W2vjT1O4nHx4sW0/vrrO6mKOiMigP5qRKAUKObGV+BVBRzoUgU/edWlaqgeIgTAq/47y01f7UQ7KUnhGWec0f7Dng2U9W/VVVeV1pYsm9CORssvvzwdcsghNGvWLCcx31XHnMdvTiGdvBV0J/mafJ8rd7aI9n+L644eptrd382kMN9aIO9+i2srKWy2zlPqLOI311AwTjpvvd11nlOzVqB0jqfimNN3zMk1k6fyWM94ho6ZVFrbchOZNljbindvH25nT5f7xvzoPl7GbDBmxblvwiUPAfCqvL8l4sC73vGqvN8BtBQ8AuBVf30gm1eVZ3E3gLzzzjti+qG/LvNPuhvb/dNKruTuN5orrLCCGC0855xz6L333nM9UsiW8BbVWqpMhtE6e6g1TbKTfA3eItrvLa6bYvvrzkghdX23kjhrgonbLa4teVZS2PuHUKq4SOyMlmxvA94dC92JYPdnLtP5bi22t2ajDto+vL893W2O/hlvNEfHymlJ9FdOkZNfz42vwKvy/eV1i37zqtf6Qp6aCIBX/feLm77aiXaRTgoZkNdee424AwzjJTsYVMPIWvvQnQx26+h2TSHLspKUXG5i0rbUk5LCAVtE+73FtZkUdnZBFec0ifOQeJSNN4bp7BbqdotrS57ZZpJ4aSWZe3qTXq2I3dAq6ckH6xp6mfJF3j7bTPw6I4Wjbcs9aPvw/vZYKXB3JAz/jLUPwzFyWyLu/ZVb/GTWd+sr8KpMb3nblgxe9VZjSFMVAfCq/55x21ePq2Hkk0IG5LnnnqONNtpoXGwCLy87GAI3uEcB3iWNE0IeGex3udp9tC3QnALKWHcOwp28dm/gFtE+b3FtJqeauXuaUTPX8LWmb5pJnDWK6H6L67a81jo/a6e1Rs08Q6lY56WTGbG+sFIXO8SIw3+1bI0BE5vPiG3AR96Wm8h++3B7e9quG+MDdkkbAyyHRePeXzmELZBqXvgKvBqI61w3KodXXasJAb0IGA2q1bp3XO0tIP87eNV/zL3oq8fRMhZJIQPy+OOP06c//elxsAm8rOxgCNzgHgXuuuuunjuTv5555pl09tlnT77p4Js5hZEPs+1UFslYa0SOaNAW0X5vcd2kIu+Sam193TqziMfLxHq8rvV9bre47pbXqEzeLjvTnjJqUFlsPNPSqb1ddoOy4hBgc4Rw1G25GXG77cPt7en4adRPP/nJTzyJlVHbi2O5uPdXYfK5V74Cr4bJ66ausng1fMgorrHY/C6vlJLgVf/d4VVfPaqmsUkKGRA+voCnHIblkh0MYcHF0lO2P73bInr8La657ZF2uCYvt7i205NnlTapOUyhkbfl5mmqdtuH29tjxcEoPxOJBC1atGiUoijjEAH0Vw6BC6Cal76S3Q+7hctL293qomJ9pfzJRxilC1Qq8gwVjRITearWKpRpHYGUFksXTBR5B2zrTMFEKmsufxB7l2UpnS9SMds6uzCVa5/7Z+id45C0xAQVxZoJUx4fvZRKJIjv5ws5SqetcwSJ+h1RRVSn7ESGSuWWHokJKtVqVMy0jnZKF1ubwjHf2Rz5JOzNU6mYbb0ITlGZZ+U0KpSyXgx3H1EVcACBV/13gOz+KlZJIbvvz3/+M/2///f//PekBy3IDgYPVJYugo8Z4MXOuICAHQJhneZmZ4+q99FfqeqZqXp57Svw6lSMw3xHFV61jkDSUnmq1crm8glNo2yxQtVyTiROvKyBGiXxOVOqUaOhU6HrDGJzh2s+YL7UlpEo8Or3BqU50cqUqN5oUKXA+wpMiMPlrXYnihXSq8V2gsY7aDerZrtTjqgivZW4TVC5Vm0fQJ/MFqlWLYlnKaHs8COf+Dioaq1myhAzlppUKfCRWWmqKDKFFLwq5zfc6756mNaxSwoZkDvvvJOSyeQwbAJ/LjsYAjfYgQI/+tGPaO7cuQ5qokpcEOCNFX784x/HxdzA7ER/FRj0Yzfsh6/Aq2O7QdkKqvCqmZx1Ni0TG5OlSi3czCSswFtZG3WqiDNy+ZFB1TxvwmautzeTws5mbWLtvFh2YVCtUqFGa+8yc7mCeW6xOHopXW77xxDr6pOkG4OOqDL1yXPmyJfYKXyCrFWAxaRGnIxaCWdnuUrnyKdee0kcD5UyRzbrvLa/0NYp6A/gVTke8KOvHqR5LJNCBuSWW26hvffeexA2gT+THQyBG+xAgVdeeYXWXnttBzVRJS4IrL766rRkyZK4mBuYneivAoN+7Ib98hV4dWxXKFlBFV41N1rrSugKSZFYmaCZm5uJpJAa7WmaHNvin7UhG9fJm/ticz1rl22Dk8fWtNR2HY0TMGPK0UtGjadztpLCVGeN/+R6rE8ngZ28L4GZTCa7ksJOXVMeb3Rn2mttHtfZHV3kvV3HUakQNOBVOV7gOJF5yW3NgWV+AnLdddfRN77xDQdayanip+1yLJDTynHHHUeXXnqpnMbQSqgQuOiii+jEE08Mlc5hVRb9VXg856evwKvhiYNBmqrAq71JEo8UdhK8TlJojgamqdYwd4sTu2RbI4WT6nQlhWIUTqNirUFibK9ZaSV+RJWMRlqOj1oyL1OPVlJoe0QV62OONHKtybp3J4U84tf/yKfJdfokhe3N7yzNgvkJXpWHu599dT8rYp0UMiC/+MUv6Nvf/nY/bAK/JzsYAjfYoQJvvPEGbbbZZg5ro1qUEfjkJz9Jy5Yti7KJytiG/koZVwxVxG9fgVeHukD5Airwam+SZJsUFngzl6w5VbNZM9cKJgtiY5fJdTpJoXker0YVMb+zSUU+g7eVrDXKvH4vQWW9yecmmfK0FPHMUPsjqkZLCmnAkU+99prTSc1E03yWFucFBx084FV5HvC7r+61JPZJIQOSy+XohBNO6MUm8O+ygyFwg10ocPnll9OcOXNcSEDVqCFwxBFH0JVXXhk1s5S1B/2Vsq6ZopgMX4FXp8AeuhtB86pIhLpGxyYneLrYeEZMH21U2juPcmxnspzUmWv4JtfpPsqpQbnWLqZcNpXJmBvFiPYMquR54xlzamdSHLfUSjptj6jqkxS2dTePruLpo3zZHfnUa6+ZFKbE5je8A2lC6NOZThtEQIFX5aLOMSjzktuaA8tkAXLWWWfRqaee6kBD/6rIst0/C+RK3muvveg3v/mN3EbRmpII3HjjjbTffvspqVtUlUJ/FR7PyvIVeDU8MWGnaXh4tecIpWFHJrUMbk467olXGhI19QqVKp11iE2xprCz1o+ruj+iqkdfOwcodB+8Kt8ZsvpqyzIkhRYSRPSDH/xAqQOuZQdDFxSh/ThjxgxaunRpaPWH4u4R4GlPq622mntBkDAWAuivxoIr0MIyfQVeDdTVnjQeN141xEHxGqWyxfYZielSJ0n0BNSQCQGvBuMwmX01W4iksMfPPI2Up72ocMkOBhVsdqtDvV6nmTNnuhWD+iFGYJtttqHnn38+xBaEU3X0V+Hxm2xfgVfDExv9NI0jrzb1KhXzOcpkslRS5GzAfr6RdQ+8Kgvpye3I7quRFE7GX3zjjWd4oXzQl+xgCNper9rXdZ222GILr8RBTogQ2HTTTempp54KkcbRURX9VXh8GYSvwKvhiY9+moJX+6ESj3vg1eD8LLuvRlJo4+uDDz448EPRZQeDDRShvL1w4ULiN1u44oPA1ltvTQ8//HB8DFbMUvRXijlkgDpB+Qq8OsApIXgEXg2BkzxWEbzqMaBjipPdVyMpHOCgoBdYyw6GAVCE8hGvLdxggw1wJEEovTe60rxRwHrrrUdvv/326JVQ0nME0F95DqlvAoP0FXjVN7dKEQxelQJz4I2AVwN3gVBAdl+NpHCI35PJJN15551DSvnzWHYw+GNFsFKfffZZmj59Ot13333BKoLWfUHg3nvvpVVXXZVeeOEFX+RD6OgIoL8aHaugSwbtK/Bq0BHgrn3wqjv8VK8NXlXHQ7L7aiSFI/h+l112If4lkX3JDgbZ9slsb6eddqLrrrtOZpNoy2cErrnmGuLfTVxqIID+Sg0/jKKFCr4Cr47iKbXLgFfV9o8T7cCrTlDzr47svlr5pHDjjTf2D+0xJG+33Xb00EMPjVHDfVHZweBeY7UlnHbaafTFL36RlixZorai0G4gAq+++irNmjWLTj/99IHl8FAuAuiv5OLtpjXwqhv0ULcbAfBqNxrh/QxeVdN3snlV6aSQ//Dj4yG+8IUvKOEt3tGSd+CSdckOBll2BdnOH/7wB1p99dUpn88HqQbadojAZZddRmuttRZVKhWHElDNLwTQX/mFrLdywatK/9njrbMlSQOvSgLap2bAqz4B64FY2byqbO94xhlntEcCuj97gLErERtttBE999xzrmSMWll2MIyqVxTKHXXUUXTEEUdQrVaLgjmRt2HBggV0+OGH09FHHx15W8NqIPor9T3XzaXdn4PWHLwatAe8aR+86g2OsqSAV2Uh7bwd2byqZFJ4zz33TBkd5LebqowOrLHGGvT666879/KINWUHw4hqRabYn//8Z3FsBW+T/vLLL0fGrigZ8tJLL9GBBx5IM2fODGRdb5Sw9NsW9Fd+I+xOPnjVxA9x6i6OhtUGrw5DKPjn4NXgfTCqBrL7KyWTQjsQ7O6PCq6X5VZaaSV69913vRQ5RZZK9k5RLkI35s6dS+ussw6ddNJJvvs0QrD5aso777xD3/3ud8VRE/PmzfO1LQj3BgH0V97g6JcUO//Y3fdLj0FywauD0AnXM/Cqev4Cr6rnk2Eaye6flUsKB40I9nvTOQxQP5/77Sy/5fuJTRhln3/++cR/lBxzzDFUr9fDaELodX7mmWdozpw5tMoqq9AFF1wQenviZAD6K3W9DV7t+AZx2sFCxifwqgyUB7cBXh2Mj8pPZfdXSiWFo6xxGKWMLAfzW5eVV17Zt+ZkB4NvhoRM8M9//nPi3fn23XdfeuCBB0KmfTjVvf/++2nvvfemTTbZhC6//PJwGhFzrdFfqRkAo3DmKGVkWQdelYW03HbAq3Lx5tbAq/Ix97pF2byqTFI4zijgoLeeXjtkmDzexpd3Q/Tjkh0MftgQZpk33XSTOAePjyO59NJLaenSpWE2Rznd33zzTbrkkkto2223pZ133pluueUW5XSEQqMjgP5qdKxklQSvTkUacToVE5l3wKv+og1e9Rdf2dJl91fKJIXjGj5ueT8d+eyzz9InPvEJz5tQyUbPjQuRQD6f8rjjjqMZM2aI0azbbrstRNqrp+qtt95Ks2fPFlNEjz/+eFq4cKF6SkKjsRFAfzU2ZL5XGNcn45b30wDwqp/oBi8bvOqtD8Cr3uKpijTZfbISSaGTkb9x3oDKcO7jjz9On/70pz1tSnYweKp8RIXxaNaee+5JX/rSl+gb3/gG3XDDDWQYRkSt9cYs3pDp17/+NfEur4xbKpWiUqnkjXBIUQYB9FfKuEIoAl7t7w/EaX9cgrwLXh0fffDq+JiFsYbs/irwpNDNWgY3df0IDj7zhbfO9+qSHQxe6R0HOW+99RZdd911tP/++9O0adNo1113FVNMn3766TiYP9TGJ598UkwN5SSQN+/5+te/TrwbHabgDoUutAXQX6njOjfc6KauHwiAV/1AVU2Z4NXBfgGvDsYnik9l82qgSaEXo31O3ob6GTh/+tOf6POf/7wnTcgOBk+UjqmQu+++W0wx5bVxfLzFfvvtJ5LERYsWxQKRWq0mkkDenGfttdcW54zy1NDf//73sbAfRhKhv1IjCsCrg/2AOB2Mj0pPwavgVZXiMQhdZPdXgSaFXhnrlRyvHF4ul2m33XZzLU41u1wbFBMBL7/8Mt14440iSUwkEmIt4qGHHkqZTIb4zL3HHnss1Eg8+uijdP3119P3v/99Ouyww2j69Om0zTbbECeBvInAK6+8Emr7oLwzBNBfOcPN61pe+cErOV7ZB171CslwygGvglfDGbnutJbdDweWFHo5wufFm1F3bptam+fI8xb7bi7ZweBGV9S1R4CnTPIbz3PPPZcOPPBA2nLLLWm55ZYTU41PPvlkOuecc6hYLIrto1VJqJiAq9WqSGJZP05oeWr0Rz7yEdpqq63ooIMOovPOO0+MBC5btszeeDyJDQLor4J3NXh1uA8Qp8MxCkMJ8GoYvAQd3SIgu78KJCn0Y82CHzLdOvPaa6+lQw45xLEY2cHgWFFUHBuB999/n3itDK+zO+WUU+iAAw6gHXbYQUy95DV4nDjyIe4cPyeeeCKdddZZdMUVV4iRuEqlQo888gjpuk58KO3ixYvptddeE+v13nvvPaEL/2TS5Pv8nMtx+Ycffpi4Po/osTyWe8IJJ4h2uD1ul9vnKbA77rijSGJZPx4ZZH3/9a9/jW0rKsQDAfRXwfrZDw70Q6ZblMCrbhGMbn3wanR9G1fLZPOq9KTQz1E9L9+SehWA/If3kUce6Uic7GBwpCQqeY4A7yrGU0znz59P/AfQRRddRKeeeqqII16zx3HOP7fYYgtx2Pv6669Pa665ppimusIKK4ipnPyTj9Dg+/ycD4Xn8rwxjlWf45Ll5nI50Q6PZnK73D4uIDAuAuivxkXMu/Lg1dGxRJyOjlWUSoJXo+TN+Ngiu7+SnhT6baDf8p2EIv9Rz6M9414q2jKuDSgvHwHEjXzM0SI2mgkyBvz+nfdbvhPswKtOUEMdpwio+Dvg1BbUCw8CsuNOalIoYyTPzzembsKIp+nxqMw4l+xgGEc3lFUXAcSNur6JsmaIu2C8C14FrwYTefFqFf1bvPytirWy405aUihzbYLMtsYJHF6bxZt2jHrJDoZR9UI5tRHg+McFBGQjgP5KNuJEMrlOZlvjIAleHQctlHWKAHjVKXKo5wYB2bwqJSkMYvROxttTJ45Op9N08cUXj1RVdjCMpBQKAQEgAAT6IID+qg8oPt4Cr3bABa92sMAnIAAEooOAbF6VkhQG9YYlqHaHheMRRxxBV1555bBiOAx6KEIoAASAgCoIyCYvVewOSo+g+C2odofhDF4dhhCeAwEgEDYEZPOqlKQwbE6Qoe/BBx8sjiMY1JbsYBikC56FBwFV/2gLD4LQ1AkC6K+coIY6XiIAXvUSTcjqRgC82o0GPstCQDavIimU5dk+7cyePZtKpVKfJ+Yt2cFgqwgehAoBxE2o3BUZZRF3kXFlqA0Br4bafcoqj/5NWddEWjHZcYekMOBw+spXvkJ33XVXXy1kB0NfJXAzdAggbkLnskgojLiLhBsjYQR4NRJuVMoI9G9KuSM2ysiOOySFCoTWLrvsQvfee+8UTWQHwxQFcCOUCGCaSyjdFnql0V+F3oWRMgC8Gil3Bm4MeDVwF8RSAdm8iqRQkTDbbrvt6KGHHpqkjexgmNQ4vgABIAAExkAA/dUYYKGoFATAq1JgRiNAAAj4hIBsXkVS6JMjnYjdfPPN6YknnmhXlR0M7YbxAQgAASAwJgLor8YEDMWlIABelQIzGgECQMAHBGTzKpJCH5zoRuSGG25Izz//vBAhOxjc6I26QAAIxBsB9Ffx9r/K1oNXVfYOdAMCQMAOAdm8iqTQzhMB3l9jjTXo9ddfxzmFAfogqKYNPU+alifDkQI6pTSNivp4tevFFGnJosM2HSmKShFEQDZ5RRBCmOQjAuBVH8FVXDR4VXEHQT1bBGTzqq9JodFsUrM53h+otsjE7MG0adOQFMbM58Jco07Vat2h5TolNY0KTpLCRAFJoUPUUc1EQDZ5AXcgMC4C4NVxEYtIefBqRBwZPzNk86ovSWGzVhR/nLIx5r8kFauNljcN0mv6+H+A1oukaSka8+/drghy2G6XBJkfP/jgAySFMgFXpa1GhTK5ivj9aJSzlM4XqZhNmb9HqVwn/htVyiRbv1/JDFXq/PKl8tjS2QAAIABJREFUKymslyiVLnV+z3q+VwsZSmgaJSfSlE5onZFCo06FdFK0l0imqdL+hTOokk+3fp81yhRrqiAGPRRBQDZ5KWK2D2oYVExqlCrqDmV7zXVey3NolgfVwKsegBhGEeDVMHoNOhNJzwN8SArNKWzpYpWahkGG0aBKzvyjttpkH+vCyLHpTiSFSao5Hnh02G6AYcl/ZH30ox8NUAM0LRsBc5qLOWqn87ROTtyyJarVyjShaZQo8G+OLj5r6SLpDZ0KE5wc8pTTTlJo6AXStM7oX/d3vWDKzVdqVC1lzUQvxdNHm5TjFznJHNXqOpWynBwmiH9vm5UMadoEVfQG6VWWrVHW+S+jbFjRngQEkBR6BbKZFJq/605kes11XstzYpN3dcCr3mEZFkng1bB4Cnr2IiCbV71PCnUe0dOoIhJAy7wG5VJpqjQalLNGNxIZ0o06ZVIZ6iSIk783qkVK8ihGYoIy6cSkkcJ6pdAajUxQOm+OrBDVKZvKULFUEGurWI9cmaX3tmvppfZP1v/VV1+ltdZaS21FoZ1nCExK3kRS2FlfqBeTYkSvKdYdpjq/N80aZSby1BgpKTSomNAoVepMUdULSdISRWpO+d1tUEbTKFNpkFh3KJJC8xe7qddIbzh+Q+MZXhCkDgKyyUsdy73WxEwKk+IFkB2ncZv9Ru97ua5OuYkslSvm7J2C/sRwzm3N8EmmC1Q3euUxndY6sxQSPJugRfaNMk1kilQu8gskN7N6vMZzsjzw6mQ84vANvBoHL0fTRtm86n1SSHVzFENLUDZfpGpNp86yQoP0SoESWoIKlZoY2eDPnQEHXTzj70bNHI2YyJepVi2KqW4W0TSrOZF45so10mslkRwmcjydzRyl1LQklao1Kud5RIRHF3vbDUfwWMFQr9dp4403DofS0NIVApPIq5CkRL7zykQkhYkiLeIkru/GMPYjhdQeOTR/R/LtaaFEllwrKeS46/4nprEZOuVS/GLGfJZM58n6W9CVwagcGQSs/ioyBgVmSHdSaMdpdqP3zSkcy5tPsW+yhRLpzQ7HmuZ1vhutl0I8y6euV0wez90/RR7PWDBnKTSo3DWbwKrPPF0oVWnSe+HAsJzasBWn4NWp2ET1Dng1qp6Nvl1WfyXLUh+SQiJq1qiQTbcSOZOQEuliiyT4D9dka5TD/NydFPIz/i5GL1KlNg7mL3WSdMMkTC1bbT9riKltGTFSwgSYaws0/0g2d2PsbrddVekP3cHw2GOP0ZZbbqm0vlDOPQKjkFe9zGv7cp0/ugydCrlin5HCzihjs5olTWwmY760ydU6f7KJUUAxUsgvYpIkHhk8CmiQXq2I5M9o1KnBVYwm6bUypXkqa1fC6t5ySAg7At39VdhtCVb/qUlhP06zH73v5jozqez8vg/g3Hxi0sumZq1A6VyltVbZ5GyjxrsjT1BnnoFBeY3XP9bJTAoTVFV8AkF3nIJXg410Wa2DV2UhjXa8RqC7v/Jadj953ieFRrNrZJD/hmxQtWiuW0qXebOZblLq/szqWd9NUkzkO5tZmITTSgpTk0cyGDRzFNGqb5nK363dGHufWWXU/dkbDA8++CBtv/326ioMzVwjMAp5Gc2K+ea/wn+aGVTJcvxzktiJd1MOH0/R5GF3861/a3SxkubyWXPTmmbXs2ZVvMjJlMzRyUZrtL5YJ6rleBp3oZWIGlSaQFLo2tkRE9DbX0XMPInmTE4KrRelpgKd33GyHb3v5rqu8kJA9zO+YX03p5Un+25uY5VpvaydNEuhxdUFvZUUMkdLhMpBU71xCl51AGLIqoBXQ+YwqNtGoLe/aj/w6YPnSaFe4ClmXaMYLcV5NzUzyTMJxvyzkz93TR8Vf+yaI4UlTvzElNCWgNZGM2KkMMEbbpgJoxjPaOhUEdv4d8jLrMXfJyeFncl4PiHqodh+wfCnP/2JPv/5z3vYCkSphIAgr9bxEDxa3j0aJzaeaf1BVi+3NogRL0SSVBJzOc1RAXNkvElFsQGN+QIlyWt5rT/mDF2sFeT44n+piQRpYqMZokaFRwLM+/wzY/2R2Ki21+mazyfEBjQqYQddgkWA4wKXFwiMlhTaj973cqzFgaybPeeKl0VdM3AMvUx5sctwR15DzFLozEDgl1IFXqNcDG9SyKiAV72IW3VlgFfV9Q00G4yAbF71nsUbZfMPzXylPaqgt/7QzPI2hoaZqIk/YlufJ8Qfnk0qihFAc4F6o8JT5BJUFlvtN1p/4JrPajlOPDOtNU0NKrT+4O289bRANtsS57Z1t2s9VvynXTD87ne/o69+9auKaw/1fEfAMIaeA8pnhYqZoH2Uado+Y7nNznEWXXX5Pv/DBQR6EbDrr3rL4fswBDqjb4M4zXb0fhLXdXEgNzuAc80dhhPm8TZGnbL8cihba9cRnN3onqXAL5HMl1O8sZw1m6e9emOYmQE9t4tT8GpADlGtWfCqah6JtT52/ZVfoHifFPK7yLK5EQwbY/1LF6wdQhuU5R1FWyOEtWLn7LNEsnuH0SaVxI6jpozEBG8aM9Fai9igfPcUUrGTKUNkvtHskFL3yMnkdv0C1Eu5g4Lh5ptvpn322cfL5iALCAABIOAYgUH9lWOhsaxoJoXmOYUDOM129L6b67o50ATTnnON1sYxLd5u82q3PCK9xLuLdrg9K3b4tpLCrl2RFfXdoDgFryrqNKgFBGKKwKD+yg9IfEkKTUUNajYa1LAZcZhkjMGjGf0XIvBIB5932O8Szzpbm/YrEup7w4Lh2muvpUMOOSTUNkJ5IAAEooHAsP4qGlaqZ4Wj0ftBnCv2BejPuW3ruUxj8v4B7WeKfxgWp+BVxR0I9YBAjBAY1l95DYWPSaHXqsZP3ijBcMUVV9CRRx4ZP3BgsS0Co8SNbWU8AAIOEUDcOQQO1aQiMEqcgleluiQUjY0SN6EwBEqGCgHZcYekUOHwGDUYLrzwQvrOd76jsCVQTSYCo8aNTJ3QVvQRQNxF38dRsHDUOAWvRsHb3tkwatx41yIkAQESU/Vl4oCkUCbaY7Y1Tif0k5/8hH74wx+O2QKKRxGBM844I4pmwSbFERinv1LcFKgXYQTGiVPwaoQDYUzTwKtjAobiniAwTn/lRYNICr1A0ScZ4wbDKaecQuecc45P2kAsEAACQMAegXH7K3tJeAIE/ENg3DgFr/rnC0gGAkBgMALj9leDpQ1/iqRwOEaBlXASDOl0mi6++OLAdEbDQAAIxBMBJ/1VPJGC1UEi4CROwatBegxtA4H4IuCkv3KDFpJCN+j5XNdpMBx++OF01VVX+awdxKuKAKa5qOqZaOvltL+KNiqwTjUEnMYpeFU1T8rVB7wqF2+0ZiLgtL9yih+SQqfISajnJhgOOugguv766yVoiSZUQ8BN3KhmC/QJDwKIu/D4Ks6auolT8Gp8I8dN3MQXNVjuFgHZcYek0K3HfKzvNhhmz55NpVLJRw0hWkUE3MaNijZBJ/URQNyp7yNo6H43P/BqPKMI/Vs8/R601bLjDklh0B4f0L4XwfDlL3+Z5s+fP6AVPIoaApjmEjWPhsMeL/qrcFgKLcOMgBdxCl4NcwQ40x286gw31HKHgBf91TgaICkcBy3JZb0Khp133pn+8pe/SNYezQEBIBAnBLzqr+KEGWyVj4BXcQpele87tAgE4oaAV/3VqLghKRwVqQDKeRkM2267LS1cuDAAK9AkEAACcUDAy/4qDnjBxmAQ8DJOwavB+BCtAoG4IOBlfzUKZkgKR0EpoDJeB8Pmm29OTzzxREDWoFlZCGCaiyyk0U43Al73V92y8RkIeIWA13EKXvXKM2rLAa+q7Z+oaud1fzUMJySFwxAK8LkfwfDxj3+cXnjhhQCtQtN+I+BH3PitM+SHHwHEXfh9GAcL/IhT8Gr0I8ePuIk+arDQLQKy4w5JoVuP+Vjfr2BYffXVacmSJT5qDtFBIuBX3ARpE9pWHwHEnfo+gobudx+1wxC8aodMNO6jf4uGH8Nmhey4Q1KocIT4GQzTpk0jwzAUth6qOUUA01ycIod6bhDws79yoxfqAoFuBPyMU/BqN9LR+gxejZY/w2KNn/1VPwyQFPZDRZF7fgbDBx98QB/60IcUsRRqAAEgEHYE/Oyvwo4N9FcHAT/jFLyqjp+hCRCIAgJ+9lf98EFS2A8VRe75HQzLli2j6dOnK2It1AACQCDMCPjdX4UZG+iuDgJ+xyl4VR1fQxMgEHYE/O6vevFBUtiLiELfZQTDK6+8QmuvvbZCVkMVtwhgmotbBFHfCQIy+isneqEOEOhGQEacgle7EY/GZ/BqNPwYNitk9FfdmCAp7EZDsc+ygqFer9PGG2+smPVQxykCsuLGqX6oF00EEHfR9GvUrJIVp+DVaEWOrLiJFmqwxi0CsuMOSaFbj/lYX2YwPPbYY7Tlllv6aA1Ey0JAZtzIsgntqI8A4k59H0FD/3Yf7YcteLUfKuG8h/4tnH4Lu9ay4w5JocIRIzsYHnjgAfrsZz+rMCJQbRQEMM1lFJRQxmsEZPdXXusPefFAQHacglejEVfg1Wj4MWxWyO6vkBQqHCGyg4GhuOeee+gLX/iCwqhANSAABFREIIj+SkUcoJPaCAQRp+BVtWMC2gEBVRGQ3V8hKVQ1EkjuNJduGH73u9/RV7/61e5b+KwwAvPnz6frr7++r4bz5s2ju+66q+8z3AQCXiIgm7y81B2y4oNAUHEKXg1XjIFXw+WvqGoru79CUqhwJMkOhm4obrrpJtp33327b+Gzwgisuuqq1Gw2hYbWNJc333yTVlllFYW1hmpRQiDI/ipKOMIWfxEIMk7Bq/761mvp4FWvEYW8cRGQ3V8hKRzXQxLLyw6GXtN+9atf0Te/+c3e2/iuIAIXX3wxpdNpoZkVNyeccALlcjkFtYVKUUTAirso2gabooNA0HEKXg1PLIFXw+OrqGoqu79CUqhwJMkOhn5Q5PN5Ouqoo/o9wj3FELDeanLcYJRQMefEQB0V+qsYwAwTXSKgQpyCV106UWJ18KpEsNHUFARk91dICqe4QJ0bsoPBzvILL7yQvvOd79g9xn1FELDeavL0UYwSKuKUGKmhSn8VI8hhqgMEVIlT8KoD5wVQBbwaAOhoso2A7P4KSWEbevU+yA6GQQiceeaZdNpppw0qgmcKIMBvNZ999lmsJVTAF3FTQaX+Km7Yw97REVApTsGro/styJLg1SDRj3fbsvsrJIUKx5vsYBgGxcknn0zZbHZYMTwPEAF+q7nNNttgLWGAPohr06r1V3H1A+wejIBqcQpeHewvFZ6CV1XwQjx1kN1fISlUOM5kB8MoUBx//PF0ySWXjFIUZQJA4J///Ccdc8wx9N577wXQOpqMMwIq9ldx9gds74+AinEKXu3vK1XugldV8UT89JDdXyEpVDjGZAfDqFAcfvjhdNVVV41aHOXGRGDp0qX0t7/9jcrlMv3yl7+k888/nzKZDH3rW9+i2bNn0y677EL77LMPbbrpprTRRhvRuuuuS6uvvjpNnz6dVlhhBZo1a5b4yd/5Pj/nclyejxnh+iyH5bHcn/70p6Idbo/b5fZxAYFxEVC1vxrXDpSPNgKqxil41d+4A6/6iy+k+4OA7P4KSaE/fvREquxgGEfpAw88kPhgdFzOEDAMg+6//37i7clPOukkkazNnDlTJHEzZsygz3zmM3TsscfSYYcdJp6fe+65dPXVV1OpVKJ7772XdF2np556ip577jlqNBq0ZMkSWrZsWXuEkEcK+Tvf5+dcjstzPa7Pclgey/3e974n2uH2uF1uf4011qDtt9+e9ttvP9E+68n6/uMf/3BmMGpFHgGV+6vIgw8DR0ZA5TgFr47sxr4Fwat9YcHNECMgu79CUqhwsMgOhnGhSKVSdOutt45bLXbl33jjDbrzzjvprLPOEknWZpttRtOmTaMddtiBTj31VDESyIcaL1iwQCRxKgD0+uuv04MPPkg33nij0O8HP/iB0HfFFVekzTffnPbff386++yzhV3NZlMFlaFDwAio3l8FDA+aVwQB1eMUvDpaoIBXR8MJpcKNgOz+CkmhwvEiOxicQPHlL3+Z5s+f76RqZOu8+OKLYhR1zpw5tNVWW9Fqq60mpmpyAshJ1t///vdQ2/7EE0/QDTfcQJwo8pQn3plt6623pqOPPpqKxSItXrw41PZBeWcIhKG/cmYZakUJgTDEKXh1asSBV8GrU6Mi+ndk91dIChWOKdnB4BSKnXfemf7yl784rR6Jerwej5PAnXbaiTbYYAPiaUCXX345Pfroo5Gwb5gRjzzyCF122WV0wAEH0Prrr08cE5wk8ggprnggEJb+Kh7egJV2CIQlTsGrJNbVg1fBq3a/y3G4L7u/QlKocFTJDgY3UPAxCLVazY2IUNXltXqFQoH23ntvWm655Wi33XYTSSCfEYiLqF6viyQxmUzS8ssvLzbGueaaa4in/OCKJgJh6q+i6QFYNQoCYYpT8Cp4tTumwavdaMTjs+z+CkmhwnElOxjcQsFr5cI+NXIYBjxtcvfdd6evfOUrdOihh9Itt9xC77///rBqsX7O23nffPPNNDExIXD72te+RryGEle0EAhbfxUt9GHNqAiELU7Bq6N6Nl7lwKvx8Lfs/gpJocJxJTsYvIDi4x//OL3wwgteiFJGxl//+lcxNXSllVYSG6zccccdyugWRkV++9vfit1WP/rRj4oppg888EAYzYDOPQiEsb/qMQFfY4BAGOMUvBqDwHRpInjVJYCKVpfdXyEpVDQQWC3ZweAVFLyxShSmCfKmKbxD6Oc+9zkxNfTdd9/1CiLIIaK3335bTDH97Gc/SzvuuKPYvAbAhBeBsPZX4UUcmjtBIKxxCl514u341QGvRsvnsvsrJIUKx4/sYPASCj66IKxn2l188cXEb2Z505SFCxd6CQtk2SDAx3HwMRcbbrghXXrppTalcFtlBMLcX6mMK3TzFoEwxyl41dtYiLo08Gr4PSy7v0JSqHDMyA4GL6H497//TR/+8Ie9FOm7rHPOOUdsipJOpyM3BdZ38Dxq4Pnnn6fjjjuOVl55ZTr33HM9kgoxMhAIc38lAx+0oQYCYY5T8KoaMRQ2LcCrYfNYR1/Z/RWSwg72yn2SHQxeA7Bs2TKaPn2612I9l8e7Yq6xxhp0yimnEC/exhU8Au+99x5lMhlaa6216Nprrw1eIWgwFIGw91dDDUSBSCAQ9jgFr0YiDAMxArwaCOyuGpXdXyEpdOUufyvLDgY/rHn55ZdpnXXW8UO0a5l//OMfxaHrvCvm66+/7loeBHiPwKuvvkqHHHIIJRIJuueee7xvABI9QyAK/ZVnYECQsghEIU7Bq8qGVygUA6+Gwk1CSdn9FZJChWNDdjD4BcUzzzxDm2yyiV/iHck9/PDD6aijjiI+dB2X+ggsWrSIvv3tb4t/6msbTw2j0l/F03vxsToqcQpejU/M+mUpeNUvZL2TK7u/QlLone88lyQ7GDw3oEvgo48+SltttVXXnWA+3nXXXfSxj32MrrrqqmAUQKuuEPjFL35BvAvf3Xff7UoOKnuPQJT6K+/RgURVEIhSnIJXVYmqcOsBXlXXf7L7KySF6sZCaI+ksIOUz6Pj4weCuk499VRxePpbb70VlApo1wME+LiTXXfdlU477TQPpEGEVwjIJi+v9IaceCEQtTgFr8Yrfv2yFrzqF7Lu5Mrur5AUuvOXr7VlB4OvxrSEVyoVmjVrloymJrXByei8efMm3cOXcCMwd+5ccb5huK2IjvZR7K+i4x1YYiEQxTgFr1rexU+3CIBX3SLobX3Z/RWSQm/956k02cHgqfIDhN1xxx20++67Dyjh3aOnn36apk2bRvw2FVf0EKhWq2KH23q9Hj3jQmZRVPurkLkB6g5BIKpxCl4d4ng8HhkB8OrIUPleUHZ/haTQd5c6b0B2MDjXdPyaN910E+27777jVxyjBk8T3WijjcgwjDFqoWjYEOAt2jfYYAPin7iCQyDK/VVwqKJlrxGIcpyCV72OlvjKA6+q4XvZ/RWSQjX83lcL2cHQVwkfb/7qV7+ib37zm760wCODM2fO9EU2hKqJwDbbbEMLFy5UU7kYaBX1/ioGLoyFiVGPU/BqLMJYmpHgVWlQ921Idn+FpLCvG9S4KTsYgrD68ssvpzlz5njaNB8zsfXWW3sqE8LCgcAWW2xBuq6HQ9mIaRmH/ipiLoulOXGIU/BqLEPbN6PBq75BO1Sw7P4KSeFQlwRXQHYwBGXpBRdcQN/97nc9af7JJ5+knXbayRNZEBJOBHhTIT7DC5dcBOLSX8lFFa15jUBc4hS86nXkxFseeDUY/8vur5AUBuPnkVqVHQwjKeVToTPPPNOTIwZWXnlleuedd3zSEmLDgACvJeWzKHHJRSBO/ZVcZNGalwjEKU7Bq15GTrxlgVeD8b/s/gpJYTB+HqlV2cEwklI+FspkMnTuuec6biGVStGtt97quD4qRgeBm2++mfbZZ5/oGBQCS+LWX4XAJVCxDwJxi1Pwap8gwC1HCIBXHcHmqpLs/gpJoSt3+VtZdjD4a81o0o877ji69NJLRyvcVepnP/sZHXvssV13/P9o1ArEPsqUGyM0ZlAxqVFeV2QnVKNBtZqld40SWoJqHqlmNHSqNTwSNgKydkWOOuooyufzdo9x32ME4thfeQwhxElAII5xGiZeJaNGKU0jLV2WEA1eN2GQXtNpbParF0nTUuT8zwOH7TowH7zqADQXVWT3V0gKXTjL76qyg8Fve0aV/61vfYuuvvrqUYvTkiVLaNNNNx25vFcFKxlNJIVaskDNoUINKiQUSgr1PGmalTA1qVapjWDDUCNFAT2vkZZTY7OXTTbZhHjaCy7/EYhrf+U/smjBSwTiGqdh4dVGJWPyqpb07EWll/EzWJYudB+b/URS6MZeh+0ONsb2KXjVFhrPH8jur5AUeu5C7wTKDgbvNHcv6cADD6R58+aNJOjoo4+myy67bKSynhUyapTUNMoXObnSqHuw0NArlE5YCWOmNWo2OSlsVAuUTKSoYg3WdSlWLbRIMZmmXHaCJnIVIjKonJmgUt16B9nz3ahTIZ0UuiSSaapYrxwNnfIT5n1NS1KRRwcbFfNNrKZRMl0igxqUz+TJOv69VrRIWaOJfKWdLJazE5QvlSibMm1L5SpT3og2KrkWoWuUKZnUaCevy2TfPl5yySV0/PHH+yYfgjsIxLm/6qCAT6ojEOc4VZ5XyeTJiXyR0ppG6S5ibZSzlM4XqZhNmRyTyrVH1vRKnhI8usiclikS02qtmKaJQs0Mx2aVJhIpKrf4k2Uxf/Fl1CuUTrbqpgttmY1yjjKFMhUzCdKSxR6uM6iST3e4rsjtNCjXkqMlMqQbdcqkMtRJECd/b1SLlOS/ExITlEknJo0U1isF8feFpiUonbd4tk7ZVIaKpUKbv3Nllt7brv+/geBV/zG2WpDdXyEptJBX8KfsYFANgj333JNuu+22tlp81MQaa6zR/s4fGo0GrbvuupPuyfjSKDMh5Mggg/JMRBb5UIOymkapQoUaDZ2KE0w2eVGORwoLdSKjZiaSmbKVhnU0rpcmiImgUKlRrZw1SUcQ0uSkkpPEzshjk3JMiMkc1eo6lbKcBCao2iQSo5mpAumNBlWLLFujmtGkSoH1T1NFTCHV29NH660yxapODb1sElOuKpLSYisZzJaqVCubNhSs5NMyoalTkQluoiCSYXt5VgX/f6655pr02muv+d9QzFuIe38Vc/eHxvy4x6nKvEqNsuCoqkFUyyVISxTayZheNJPBZLZEtVqZJjSNEgWdqFkRdQqCsyrivparkcnRWfFSs9kafUwVzRSNl3Ik+XOzKpLJZK5Mul6jLCd1ibyoY7WnpbJUqk7malPeBFX0BulVcxlJttYkvVIQXMr8bVCHV81fjs53a+nJRL5MtWqxldCa00ebVfPFaq5cI71WEhycyHHSqbeSwSSVqjUq5xkPHl00etqV86sIXpWDs+z+CkmhHL86akV2MDhS0udKu+66K919992iFZ7LvuKKK9Idd9zRbvWHP/whzZ07t/1dzgczIROkwl21IKuMeDtpddwThQo1eVDPaJCu83tLc01hMmO+XeyXEFqJXqrUIaBa3npL2Z0EspWd74bO6xE0qrTnsDYow2sdK3USidxEgXRTGdJrNRLL/epMZIUWXDolW+TCiWZ3+2YCO0G8SoKJ1CQns1qbWHtArxeSJlm3dOwvr6eSj1+vueYaOv30031sAaIZAfRXiIMwIIA4JVKTV4k6fCeI1eS11mwak2f5Bat56cWkOYInpl5qVKiYa/l4TbvOJNdKFnmtfC3LI3EaaRO8TrEhkqtSw+LuXHs2jJWU8gweq702rXYFd11wPieF5tOmXjPbJJNLzdTT4lWrYue7XkiSlipZD8jQmY+TpBsmz2pZfhFrXuZ0Wv77wkwKc+3F/yxPo6J4MdvdrlXT35/gVX/xtaTL7q+QFFrIK/hTdjAoCIFQ6T//8z/pf//3f2nGjBmiYz/ggAPaqq633nr00ksvtb9L+dB6mylIpjVlhT+bnTNRvdyZQsmLx/NiiodhJmit8unWG8tJ+hpmJ9+9GY0gpgRPXekkgWYdg4qtNYpWUtirD78VNermG1XrWTpfFgRokpD1FrZFVs1ukmm1IhJO822k1V67fX7bym9qey4mvEReJ2rZY+HCxUxd3ayd6GlshK/PP/88bbjhhiOURBE3CHCM4QICqiOAODU9pByvkvky0+Iq66c1utfmlVaAiaSwxY2VnDkLRtRJZagskjVzBk2+WqNcIkHFCo/IpakmOM18iau3ZsZYbVk/eQZMR36fiDZ0yqVaiaZYhpEnMz9scanIXLs/swzre+sFa741tbWLF0VS2JqRY+li/uRRRKu+pQ9/18icrdP7zCrj30/wqn/YdksCkyCDAAAbVklEQVRm/8u85LYm07IItCU7GFSFbPHixeKP+unTp4ukkH/y9cADDxAfqCr7quWTpCWyVKvXSdd1qteZdDTSsubav3rdfLXZbOhUFtM0W0lVktdI1KnemsoydT2hSYr59ptAIvFGsUV8nJR13hI2xTRVTiCtt4w1fmlpiOFJ0qsVQVLNet1MApsNqpXNaS7tOu2pORahNMQ6jk4b1lRXc6SwM12VEW+NfNolheL+IHlyvbbtttvSwoUL5TYas9bQX8XM4SE1F3FqOk41XjVnpSSoVNMFr+p1ncpiKYQ5BdQ2KTSaVG8I8qOGXqNCmqeAmi88BVdrnLxlqUFmkphIaJQQXG3xq7lRnEmdDaq2Nl0blBQajTqZTTZJr5UFb4oXoVNGCrt29RYjl+YL0RInfmJKaOuXqLXRjEgKWb/WchRzspFOFTF91eJp6xdvalI49RWtVdafn+BVf3Dtliq7v0JS2I2+Yp9lB4Ni5tNPfvIT+tSnPkV8IL01SsiYrLbaanTffffRj3/8YzrvvPMkq20mOhM896TrapR4WugE6UZNJK55kaHxyFipPe/fTKq4UpPynEROWbxOVGZC07Ik1sNbG8K01hRyUqhNFFvrHcw3o2IUrrUuwtrYpdE6KqNYN9c7WgTDI3e8DqOdFGrpKW83K4JQc2b7Rt1cq5gxk91+SaFY09GFA38UiWy6JPS0l9dTyeevZ511FvE/XP4hEPf+yj9kIdlLBOIep2ryKpHgCjG9s8vbDeZPcxaOXVLYrPHMnCS1KJd0sS7fTArNF6Z8vIW5qYy1Y3iOF9wzE4u6CSq1poHWeFqnlhKbrplJoTWbpksn3sQmZyaephSDShPapNkxQl5rpsyEmBXUbM0UMtcNNir890KitfFNo7X3gPlMrKXUMi1ublCB1zkmi10jjZYuXUlhqy3LDquE3z/Bq34jLH9ZBpJC/33quIW4kxdPE/3whz8skkLGovtfOp2mPfbYg26//XbH+DqpaE5/NDdxmVS/lZjxVI6qWADe0TeVb23U0n0kRd0ku2xnIaAprlmjDCd/3famzJ3PmjVz7aB4lmDysqaO8Iai5sYvVr1Ma3pqozr5vpYqmGsfG5XW4nZeo9H1BtLQJ7efyLZ2Y+tMVzUVNUcKrak93Vg0KuYGOQmeHmMrr7uG/59LpRLNnj3b/4Zi3ALHHi4goDoCcY9TFXnVWoufszK7dhCZo3u8TGFqUphqvVhtUL5nymWhar20NV+EWmcJm5u4TF6+UJnE1wkqthJEsXSjz4tboVqj2t4B1OTcCbGxG69XzAr+NkcIeQdUi5MTye4dRptUEjuOmlyfmOBNY3hGDl899oidTPl+F0+LcuYaQ3N5xuR2xWMJ/4FX/QdZdn8FFvffp45bkB0MjhX1ueJNN91E//Vf/0XLLbccWVNIecfRmTNn0oIFC3xu3aF4o0nNZtPcbMaBCKPZFAvqxYJ2MX20JcQwqCnmufQTaog2rYX4nRLm/abYbKZzd9AnoXvTfA86qNyoz7yWN2q7Vrmgphpb7cfhJ/qrOHg5/DYiTk0fhpJXB4Qfc2azYfLmgGL9H7X4uv9D+7sj8ZrRJMOGs4XOg56Nwdn2Wvr3BLzqH7aWZNn9FZJCC3kFf8oOBgUhmKTSO++8Q1deeSUlEglxDAUnhtI3mZmkkf9f9AK/XezsuOZ/i9FsgdfPrL/++tE0ThGr0F8p4gioMRABxOlkeOLIq5MRwDenCIBXnSI3ej3Z/RWSwtF9I72k7GCQbqCLBvncuVmzZrmQEI6qRr3aWmQeDn1V1jIO8RIk/uivgkQfbY+KAOLUHqm48Ko9AngyLgLg1XERG6+87P4KSeF4/pFaWnYwSDXOg8YCOY7CA70hQj4CeKPpP+bor/zHGC24RwBxOhhD8OpgfPC0gwB4tYOFX59k91dICv3ypAdyZQeDBypLFaH0mkKpSKCxYQhg7cMwhNw/R3/lHkNI8B8BxOlgjMGrg/HB0w4C4NUOFn59kt1fISn0y5MeyJUdDB6oLFVEELuPemGgnk9MPqNoTKGNWo0aU3eTGVNKp7jX8jqS1fmEXdL89wX6K/8xRgvuEUCcDsYwrLw62Cp/nnZzp1te90dDf6WCV/3Fl6XL7q+QFPrvU8ctyA4Gx4oGVPHMM8+ks88+O6DWnTdr1GtUa2177URKQdMo5+EptV7Lc2KT33X4bK4wxorfuHgpH/2Vl2hCll8IIE4HIxtWXh1slT9Pu7nTLa/7o6G/UsGr/uLL0mX3V0gK/fep4xZkB4NjRQOqyMdR8FSXsF18pmCuXBdql7MTlC+VKNs6ZymVq4ijKPihXsm3zhLUKJkpivMFK1k+z4jPNkpSSTeokk1ToVwWZyOlCouonJmgkjj5niUYk783qpThg3C5fjJDlTrXnyyPz0gqZqx7CcpXrOyzTrmJLJUrRUp2nY8YFux5x9pFixaFRd1Q6on+KpRui53SiNPBLg8rr06ySnAd79ydoHQ2R+nUBFX46MJ6iVLpUptje7/XKwXBb6Jefjwu7uZ1atQ6XJtIU8V6Cdwo00Q6T6WieZavpqVaB9hP0j40X8Cr/rtKdn+FpNB/nzpuQXYwOFY0wIp8zAAvdg7TJY6Z4IPdyaBiKxnMlqpUK5sHzRd0g6hZEclboapTQ6/QBCdyuRo19QqlNY0mChVqGJ36qWyBqnqDCgmN8lxfXEbXd/MQXy1dJL2hU2GCk8O8kN0tryTup6lab1CtbBJXrsrnFZoH5XJMZgslsjguDLg/99xztNFGG4VB1VDriP4q1O6LjfKI0+GuDiOvdqzqcF1Nr1FWvETViHnV0AukaYV2Utj93TzYXqNcuUZ6rSSSw0SuNiIXE3V4vdO+3mhQOZsUySnTqKEXWy9lc1St1SjP/J/o6NOxQf1P4FU5PpLdXyEplONXR63IDgZHSgZc6Uc/+hHNnTs3YC3Ga14vJCmR5xE4g4pJjQTxtETw92RRJ6qb5FGo6ILAjIZOemshYVEkflyht353Emg+t5JEQ+eEM0XWuB81a5SZyIvRx7Y8oyZGJovmIKbQqMbrH1PFdlKYq3l3oH3LZN9/XHPNNfTjH//Y93bi3gD6q7hHQDjsR5wO91MYedWyykz0JqhNYy1eG5wUmlyqZauWGGpUMqRpGWqMxMWcFJq8btSYa7vaJ4PymkapYr2VFCaoZr23FUliitrvcdutq/8BvCrHR7L7KySFcvzqqBXZweBIyYArvfLKK7T22msHrMV4zVvkIZK6npE9kRQWzISxkptoTRXVSEtlqCyG57oTP5PIkqI869D9zPxuJnyGICwtWWy/Ie1o3KljkmlX4sipYDHVepOph3LaKNu5+uqr05IlSzom45MvCKC/8gVWCPUYAcTpcEDDyKuWVXox2TP6Zs5y6ZcUUnvksDPrhuOj848TNoOGc3EnKWR+n8y1rZe3Bb3PSCW//E2GMikEr1oR5+9P2f0VkkJ//elKuuxgcKVsgJWPO+44uvTSSwPUYLymu5NCayTPlNCV5BlNqjd4VM6ghl6jQtqaZtJJ4qyRwu6kkJPAXPs1ZFNMneHppI1ymjQtR+1xPkOnQo7XKXbJa5TFNJd2dSKyRgoNCmdSeNFFF9GJJ544noNQ2hEC6K8cwYZKkhFAnI4GeNh41bKqUWGuy3e9AO1wl/nis/OsWc22EkiDmDsTBV7WwcxKxLNzKtU60Uhc3EkKTa7ttGG9rE0Vo5MUgletaPP/p+z+Ckmh/z513ILsYHCsaMAV33jjDdpss80C1mL05oclhQl+o1jLiTeI1mxNvcSjhrz2wCSvdKlr+mnXSCETmzZRFMmfXjRHGotdaxSzFZ5UwxvM8NtQThK75TUoo2mUyJoL7I1GRUwnzYgV+h1iHd3S4Et+8pOfpGXLlgWvSAw0QH8VAydHwETE6WhODBuvtq0SLzc1yrY2c6vkzI3TOiOFGhV51o1RM9fqt2bQ1HK8MU2mtV6+QQXelI2fjcTFnaSQGuZ+ACbXEjUq5tr8ilhT2Lum0Rwp7H4R27ZD4Q/gVXnOkd1fISmU59uxW5IdDGMrqFCFyy+/nObMmaOQRvaqdCeF1vROs7Q5UshvFHkXULEIvWsqS6HK26cRVbJMXhrla02xJtEsb0po1loL2bleghe4mwvs+Wm9tXEM3zN3LzXHDTvyeCF+qb3jKZdLZsutN67mFByRYJpNKf//EUccQVdeeaXyekZFQY4XXEBAdQQQp6N7KEy82m2VXuT1gN3TQDkR5PG/JhXFZmrms6SV+InKPZybyLSmdfbcZ06dwsXmEg1zrwAivTS5/WzZXM0vRiq7NpYxN56ZvGSj2w4VP4NX5XpFdn8FFpfr37Fakx0MYymnYOG99tqLfvOb3yiomXOVjGaTmg0ezxvjMgxqGjY1+FnT5lm7CS7TGKFcu4JyH2688Ubab7/9lNMrygqhv4qyd6NjG+J0PF+GllfbXNdZU2hZzrxqS5HMuX04cmwuNkzu7iPKUiN0P8Gr8l0mu79CUijfxyO3KDsYRlZM4YIzZsygpUuXKqwhVPMbAZ72tNpqq/ndDOT3IID+qgcQfFUSAcTp+G4JNa+2dh/Nh22O5vhu8rUGeNVXeG2Fy+6vkBTauiL4B7KDIXiL3WtQr9dDeaC9e8shwUJgm222oeeff976ip+SEEB/JQloNOMKAcTp+PCFm1ebVCtXqD5sgsz4sMSqBng1GHfL7q+QFAbj55FalR0MIykVgkK6rtMWW2wRAk2hotcIbLrppvTUU095LRbyRkAA/dUIIKFI4AggTp25ALzqDLco1AKvBudF2f0VksLgfD20ZdnBMFShEBVYuHAh8ZstXPFBYOutt6aHH344PgYrZin6K8UcAnX6IoA47QvLSDfBqyPBFKlC4NVg3Sm7v0JSGKy/B7YuOxgGKhPCh7y2cIMNNsCRBCH03TgqN5tNWm+99ejtt98epxrKeowA+iuPAYU4XxBAnLqDFbzqDr+w1AavquEp2f0VkkI1/N5XC9nB0FeJkN989tlnafr06XTfffeF3BKo3w+Be++9l1ZddVV64YUX+j3GPYkIoL+SCDaacowA4tQxdO2K4NU2FJH8AF5Vx62y+yskher4foomsoNhigIRurHTTjvRddddFyGLYMo111xDu+yyC4BQBAH0V4o4AmoMRABxOhCesR6CV8eCKxSFwatquUl2f4WkUC3/T9JGdjBMajyCX0477TT64he/SEuWLImgdfEx6dVXX6VZs2bR6aefHh+jQ2Ap+qsQOAkqikPNAYN3CIBXvcMySEng1SDRt29bNq8iKbT3ReBPZAdD4AZLUOAPf/gDrb766pTP5yW0hia8RuCyyy6jtdZaiyqViteiIc8lAuivXAKI6lIQQJx6DzN41XtMZUoEr8pEe7y2ZPdXSArH84/U0rKDQapxATd21FFH0RFHHEG1Wi1gTdD8KAgsWLCADj/8cDr66KNHKY4yASCA/ioA0NHk2AggTseGbOQK4NWRoVKiIHhVCTcMVEJ2f4WkcKA7gn0oOxiCtVZ+63/+85/FsRUHH3wwvfzyy/IVQItDEXjppZfowAMPpJkzZxIvfselLgLor9T1DTTrIIA47WDhxyfwqh+oeisTvOotnn5Kk91fISn005suZcsOBpfqhrb63LlzaZ111qGTTjqJ3n333dDaESXF33nnHfrud78rjpqYN29elEyLrC3oryLr2kgZhjiV407wqhycx2kFvDoOWmqUld1fISlUw+99tZAdDH2ViNHN888/n1ZaaSU65phjqF6vx8hydUx95plnaM6cObTKKqvQBRdcoI5i0GQoAuivhkKEAgoggDiV6wTwqly8+7UGXu2HSjjuye6vkBQqHBeyg0FhKKSq9vOf/5w23nhj2nfffemBBx6Q2nZcG7v//vtp7733pk022YQuv/zyuMIQarvRX4XafbFRHnEajKvBq/JxB6/Kx9zrFmX3V0gKvfagh/JkB4OHqkdC1E033STOwdtuu+3o0ksvpaVLl0bCLlWMePPNN+mSSy6hbbfdlnbeeWe65ZZbVFENejhAAP2VA9BQRToCiFPpkE9qELw6CQ7Pv4BXPYc0UIGy+yskhYG6e3DjsoNhsDbxffrQQw/RcccdRzNmzBCjWbfddlt8wfDA8ltvvZVmz54tpogef/zxtHDhQg+kQkTQCKC/CtoDaH8UBBCno6DkfxnwqrcYg1e9xVMVabL7KySFqni+jx6yg6GPCrjVgwCPZu255570pS99ib7xjW/QDTfcQIZh9JTC124EePOeX//618S7vDJuqVSKSqVSdxF8jgAC6K8i4MQYmIA4Vc/J4NXxfQJeHR+zMNaQ3V8hKVQ4SmQHg8JQKKfaW2+9Rddddx3tv//+NG3aNNp1113FFNOnn35aOV2DUOjJJ58UU0M5CeTNe77+9a8T70aHKbhBeENOm+iv5OCMVtwhgDh1h5+ftcGrg9EFrw7GJ4pPZfdXSAoVjiLZwaAwFMqrdvfdd4spprw2jo+32G+//USSuGjRIuV190LBWq0mkkDenGfttdemL3zhC8RTQ3//+997IR4yQoAA+qsQOAkqEuI0PEEAXgWvhida/dFUdn+FpNAfP3oiVXYweKI0hNDLL79MN954o0gSE4mEWIt46KGHUiaTIT5z77HHHgs1So8++ihdf/319P3vf58OO+wwmj59Om2zzTYiCeRNBF555ZVQ2wflnSGA/soZbqglFwHEqVy8vWoNvApe9SqWwiRHdn+FpFDh6JAdDApDEWrVeMokv/E899xz6cADD6Qtt9ySlltuOZo5cyadfPLJdM4551CxWCTePlqVhIoJuFqtiiSW9eOElvX9yEc+QltttRUddNBBdN5554mRwGXLloXaP1DeGwTQX3mDI6T4iwDi1F98ZUkHr8pCGu0EiYDs/gpJYZDeHtK27GAYog4ee4jA+++/TwsWLBDr7E455RQ64IADaIcddhBTL3kNHieOfIj7IYccQieeeCKdddZZdMUVVxCPxFUqFXrkkUdI13XiQ2kXL15Mr732mliv99577wkt+SeTJt/n51yOyz/88MOiPstheSz3hBNOEO1we9wut89TYHfccUeRxLJ+PDLI+v7rX//yEAWIihIC6K+i5M3o2oI4ja5vwavR9W1cLZPdXyEpVDjSZAeDwlDESjXeVYynmM6fP5+uvfZauuiii+jUU0+lI488knjN3qxZs8TPLbbYQhz2vv7669Oaa64ppqmusMIK4jn/5CM0+D4/50PhuTxvjGPVZ3ksN5fLiXZ4NJPb5fZxAYFxEUB/NS5iKB8EAojTIFAPvk3wavA+gAbjIyC7v/r/7dfBaSQwEETR1Cb/pLxY4AD2oOJreAYfLde8LnpoR+H/z2j2F+syzD6Yf0SAwNcJ2FdfN9Kv/EB6+pVj9aEIfKXAel85CsM1WpchTCEaAQJxAfsqPiDxjoCeKgIBAq8IrPeVozDcjHUZwhSiESAQF7Cv4gMS7wjoqSIQIPCKwHpfOQrDzViXIUwhGgECcQH7Kj4g8Y6AnioCAQKvCKz3laMw3Ix1GcIUohEgEBewr+IDEu8I6KkiECDwisB6XzkKw81YlyFMIRoBAnEB+yo+IPGOgJ4qAgECrwis95WjMNyMdRnCFKIRIBAXsK/iAxLvCOipIhAg8IrAel85CsPNWJchTCEaAQJxAfsqPiDxjoCeKgIBAq8IrPeVozDcjHUZwhSiESAQF7Cv4gMS7wjoqSIQIPCKwHpfOQrDzViXIUwhGgECcQH7Kj4g8Y6AnioCAQKvCKz3laMw3Ix1GcIUohEgEBewr+IDEu8I6KkiECDwisB6XzkKw81YlyFMIRoBAnEB+yo+IPGOgJ4qAgECrwis95WjMNyMdRnCFKIRIBAXsK/iAxLvCOipIhAg8IrAel85CsPNWJchTCEaAQJxAfsqPiDxjoCeKgIBAq8IrPeVozDcjHUZwhSiESAQF7Cv4gMS7wjoqSIQIPCKwHpfOQrDzViXIUwhGgECcQH7Kj4g8Y6AnioCAQKvCKz3laMw3Ix1GcIUohEgEBewr+IDEu8I6KkiECDwisB6XzkKw81YlyFMIRoBAnEB+yo+IPGOgJ4qAgECrwis95WjMNyMdRnCFKIRIBAXsK/iAxLvCOipIhAg8IrAel85CsPNWJchTCEaAQJxAfsqPiDxjoCeKgIBAq8IrPeVozDcjHUZwhSiESAQF7Cv4gMS7wjoqSIQIPCKwHpfOQrDzViXIUwhGgECcQH7Kj4g8Y6AnioCAQKvCKz3laMw3Ix1GcIUohEgEBewr+IDEu8I6KkiECDwisB6XzkKw81YlyFMIRoBAnEB+yo+IPGOgJ4qAgECrwis95WjMNyMdRnCFKIRIBAXsK/iAxLvCOipIhAg8IrAel85CsPNWJchTCEaAQJxAfsqPiDxjoCeKgIBAq8IrPeVozDcjHUZwhSiESAQF7Cv4gMS7wjoqSIQIPCKwHpfOQrDzViXIUwhGgECcQH7Kj4g8Y6AnioCAQKvCKz3laMw3Ix1GcIUohEgEBewr+IDEu8I6KkiECDwisB6XzkKw834fD4/v4Xwy0AHdKDegd995YdAXcD3ql1a36Xy6ehfB9bfq47C+jeYfAQIECBAgAABAgQIELgo4Ci8iOtpAgQIECBAgAABAgQI1AUchfUJyUeAAAECBAgQIECAAIGLAo7Ci7ieJkCAAAECBAgQIECAQF3AUVifkHwECBAgQIAAAQIECBC4KOAovIjraQIECBAgQIAAAQIECNQFHIX1CclHgAABAgQIECBAgACBiwKOwou4niZAgAABAgQIECBAgEBdwFFYn5B8BAgQIECAAAECBAgQuCjgKLyI62kCBAgQIECAAAECBAjUBRyF9QnJR4AAAQIECBAgQIAAgYsCjsKLuJ4mQIAAAQIECBAgQIBAXcBRWJ+QfAQIECBAgAABAgQIELgo4Ci8iOtpAgQIECBAgAABAgQI1AUchfUJyUeAAAECBAgQIECAAIGLAo7Ci7ieJkCAAAECBAgQIECAQF3AUVifkHwECBAgQIAAAQIECBC4KOAovIjraQIECBAgQIAAAQIECNQFHIX1CclHgAABAgQIECBAgACBiwKOwou4niZAgAABAgQIECBAgEBdwFFYn5B8BAgQIECAAAECBAgQuCjgKLyI62kCBAgQIECAAAECBAjUBRyF9QnJR4AAAQIECBAgQIAAgYsCjsKLuJ4mQIAAAQIECBAgQIBAXcBRWJ+QfAQIECBAgAABAgQIELgo4Ci8iOtpAgQIECBAgAABAgQI1AUchfUJyUeAAAECBAgQIECAAIGLAv8AQ391w20Lp/0AAAAASUVORK5CYII=;" vertex="1" parent="1">
          <mxGeometry x="130" y="30" width="551" height="364.48" as="geometry" />
        </mxCell>
      </root>
    </mxGraphModel>
  </diagram>
</mxfile>
